<svg viewBox="0 0 35 34" xmlns="http://www.w3.org/2000/svg">
<path d="M24.2827 0.263672H10.7174C5.20441 0.263672 0.719238 4.74884 0.719238 10.2619V23.8271C0.719238 29.3402 5.20441 33.8253 10.7174 33.8253H24.2827C29.7957 33.8253 34.2809 29.3402 34.2809 23.8271V10.2619C34.2808 4.74884 29.7957 0.263672 24.2827 0.263672ZM30.9046 23.8271C30.9046 27.4843 27.9398 30.449 24.2827 30.449H10.7174C7.06029 30.449 4.09554 27.4843 4.09554 23.8271V10.2619C4.09554 6.60467 7.06029 3.63997 10.7174 3.63997H24.2827C27.9398 3.63997 30.9046 6.60467 30.9046 10.2619V23.8271Z"/>
<path d="M17.5001 8.36426C12.7138 8.36426 8.81982 12.2582 8.81982 17.0444C8.81982 21.8307 12.7138 25.7247 17.5001 25.7247C22.2863 25.7247 26.1803 21.8307 26.1803 17.0444C26.1803 12.2581 22.2863 8.36426 17.5001 8.36426ZM17.5001 22.3484C14.5708 22.3484 12.1961 19.9738 12.1961 17.0445C12.1961 14.1152 14.5708 11.7406 17.5001 11.7406C20.4294 11.7406 22.804 14.1152 22.804 17.0445C22.804 19.9737 20.4293 22.3484 17.5001 22.3484Z"/>
<path d="M26.1971 10.5094C27.3458 10.5094 28.277 9.57821 28.277 8.42951C28.277 7.28081 27.3458 6.34961 26.1971 6.34961C25.0484 6.34961 24.1172 7.28081 24.1172 8.42951C24.1172 9.57821 25.0484 10.5094 26.1971 10.5094Z"/>
</svg>
