<svg width="106" height="20" viewBox="0 0 106 20" xmlns="http://www.w3.org/2000/svg">
<path d="M14.9203 1.17338L12.6045 5.77869C12.544 4.65857 12.1123 3.59129 11.3785 2.7477C11.0357 2.39712 10.6239 2.12277 10.1695 1.94233C9.71511 1.76188 9.22825 1.67934 8.74027 1.70002C8.03087 1.67206 7.32597 1.82537 6.69117 2.14569C6.05637 2.46601 5.51229 2.94292 5.10956 3.53206C4.15945 5.05968 3.70474 6.84741 3.8085 8.64721C3.8085 13.4804 5.77028 15.8941 9.69382 15.8885H11.6843V9.43157H8.56791C8.07868 9.44803 7.58916 9.40951 7.1084 9.31671C6.77941 9.23314 6.47703 9.06634 6.22991 8.83209V8.52115C6.49215 8.72798 6.79412 8.87773 7.11674 8.96095C7.59723 9.04809 8.08553 9.08378 8.57347 9.0674H11.6649V8.39229H7.68108C6.44675 8.39229 5.82958 7.94315 5.82958 7.04487C5.82136 6.71513 5.93422 6.39393 6.14651 6.14286C6.233 6.0242 6.34643 5.92814 6.47733 5.86273C6.60713 5.79577 6.75132 5.76209 6.89712 5.76468C7.00237 5.76464 7.1065 5.78658 7.20292 5.82911C7.30046 5.86895 7.38857 5.92909 7.46146 6.00559C7.53833 6.07663 7.59902 6.1636 7.63938 6.26051C7.681 6.35688 7.70275 6.46076 7.70332 6.56585C7.70332 6.93002 7.5671 7.14852 7.303 7.20174L6.98052 7.26337C6.9621 7.26102 6.94341 7.26257 6.92562 7.26791C6.90784 7.27326 6.89136 7.28228 6.87723 7.29441C6.8631 7.30654 6.85164 7.3215 6.84357 7.33834C6.83551 7.35519 6.83102 7.37354 6.8304 7.39223C6.8304 7.45386 6.96662 7.5519 7.23628 7.5519H15.8738L14.1669 9.27749V15.4263L15.7543 16.7989H8.15369C7.26877 16.8239 6.38631 16.6931 5.54602 16.4124C4.76883 16.0924 4.06071 15.6234 3.461 15.0313C2.62657 14.2474 1.97078 13.2905 1.53883 12.2266C1.10688 11.1626 0.909049 10.0169 0.958976 8.86851C0.958976 6.20729 1.74572 4.13153 3.31922 2.64125C3.96672 2.00621 4.73219 1.50613 5.57178 1.16965C6.41138 0.833166 7.3086 0.666893 8.21207 0.680352C9.19893 0.692019 10.1798 0.837112 11.1283 1.11175C11.8514 1.34463 12.5969 1.49957 13.3523 1.57396C13.8984 1.5625 14.4347 1.42548 14.9203 1.17338V1.17338ZM11.6843 3.86261L11.4591 3.70294C10.73 3.11044 9.83857 2.75662 8.9043 2.68887C8.44857 2.68295 7.99643 2.77064 7.57544 2.94659C7.15902 3.12257 6.78113 3.37959 6.46343 3.70294C5.94237 4.25125 5.57247 4.92719 5.39034 5.66384C5.14635 6.71365 5.03704 7.79066 5.06508 8.86851C5.01298 10.1762 5.18124 11.4833 5.5627 12.7343C5.93426 13.6884 6.5571 14.5223 7.36416 15.1462V15.2834C6.42171 14.7316 5.69115 13.8761 5.29026 12.8547C4.81486 11.4882 4.59798 10.0439 4.65085 8.59678C4.55562 6.97879 4.94289 5.36909 5.76286 3.97466C6.09179 3.45182 6.55091 3.02493 7.0945 2.73649C7.63846 2.45034 8.2465 2.31043 8.85981 2.33031C9.41161 2.32436 9.95665 2.45295 10.4485 2.70513C10.9403 2.95731 11.3643 3.32559 11.6843 3.77857V3.86261ZM16.4104 8.27183L15.126 9.55762V15.4263L17.1916 17.8186L12.2403 17.7794L7.76726 17.8242H7.1223C6.54702 17.7401 6.00464 17.5021 5.55158 17.1351H5.80734C6.54592 17.4177 7.33374 17.5464 8.12311 17.5133H16.4993L14.7841 15.5972V9.43437L16.213 7.9861L16.4104 8.27183ZM15.6598 1.96054L13.5386 6.16246L13.2384 6.0252L15.3734 1.80647L15.6598 1.96054Z"/>
<path d="M28.3254 6.24933L28.1892 6.4062C27.6021 7.13741 27.1398 7.96198 26.8214 8.84612L26.6935 8.56599C26.5026 8.03365 26.1531 7.57379 25.6927 7.24938C25.0866 7.00598 24.4336 6.90445 23.7828 6.95245C23.3631 6.95245 22.8599 6.95245 22.2816 6.99167V10.9135H22.821V7.43707C23.2491 7.40065 23.655 7.37825 24.047 7.37825C24.583 7.34805 25.1197 7.42516 25.626 7.60515C26.0098 7.80427 26.3248 8.1158 26.5295 8.49876L26.3627 8.3783C26.0644 8.11423 25.7302 7.89445 25.3702 7.7256C24.9778 7.63986 24.5759 7.60689 24.1748 7.62756H23.0322V10.863H24.5724L25.6649 9.34755V13.0144L24.5724 11.6418H22.265V16.404H22.821V12.034H24.6558L24.8726 12.2525H23.0322V16.404C23.8578 16.4317 24.683 16.3373 25.4814 16.1239C25.9708 15.9574 26.3792 15.61 26.624 15.1518L27.0688 14.3955L27.1745 14.205C27.2762 14.735 27.4581 15.2461 27.7138 15.7205C28.0218 16.1971 28.3858 16.6345 28.798 17.0231H19.3098L20.5969 16.0398V12.2721C20.1408 12.3204 19.701 12.4706 19.3098 12.7119L19.1986 12.5354C19.6128 12.2561 20.0916 12.0891 20.5886 12.0508V11.6502H20.3857C19.8002 11.6579 19.2393 11.888 18.8149 12.2945C18.8951 11.8885 19.1195 11.526 19.4461 11.2748C19.7726 11.0237 20.1788 10.9012 20.5886 10.9303V7.30261L19.3014 6.25773L28.3254 6.24933ZM29.7377 17.1071L29.3012 17.8663H20.0771L19.9409 17.6702H29.1983L29.4763 17.1379C28.7334 16.4705 28.1474 15.6447 27.7611 14.7204L28.0391 14.8213C28.4209 15.643 28.9549 16.3837 29.6126 17.0035L29.7377 17.1071ZM26.2432 9.6837V13.4654L26.0319 13.3534V9.55764L26.2432 9.6837ZM28.723 6.8516L28.6701 6.92724C28.1005 7.63756 27.6326 8.42493 27.2801 9.26631L27.13 9.09263C27.514 8.21847 28.0205 7.40433 28.634 6.67512L28.723 6.8516Z"/>
<path d="M54.63 1.39188H60.4403L58.7111 3.04464V10.6081L59.395 9.85176V3.1847L60.785 1.82047L60.9713 2.1006L59.6952 3.35278V9.43157L63.5428 4.80104C64.021 4.31603 64.3159 3.67792 64.3768 2.99702C64.368 2.821 64.3215 2.64899 64.2406 2.49278C64.1576 2.33613 64.043 2.19872 63.9042 2.0894C63.581 1.80139 63.1859 1.60768 62.7616 1.52914V1.40028H69.303V1.52914C67.8741 1.8793 66.295 3.04464 64.6715 5.05876L62.9506 7.12051L67.5293 16.1042L69.6171 17.4684H63.1703L64.8021 16.2499L61.7246 10.0366L59.7036 12.5298V16.0958L61.7246 18.4769H55.35L55.0137 18.1352H60.9685L59.3894 16.2247V12.3449L61.5551 9.66127L61.2771 9.10101L58.7139 12.1824V16.0818L60.2179 17.446H54.5327L56.2313 15.9838V2.88496L54.63 1.39188ZM69.9202 2.5376C68.6951 2.61978 67.4747 3.33877 66.2589 4.69459L64.0877 7.12611L68.4773 16.0902L72.0107 18.4909H64.096L63.7429 18.1492H70.9377L68.2911 16.3255L63.7791 7.12611L66.0948 4.4985C67.0178 3.29536 68.3626 2.49356 69.8534 2.25748L69.9202 2.5376Z"/>
<path d="M73.095 7.88527C74.3998 7.11223 75.8877 6.70864 77.4013 6.71713C78.4375 6.66896 79.4645 6.93327 80.3509 7.47628C80.7002 7.6775 80.9914 7.96706 81.1957 8.31635C81.3999 8.66565 81.5103 9.06259 81.5157 9.46799C81.5153 9.79635 81.4491 10.1213 81.3211 10.4232C81.1914 10.7238 81.0022 10.9945 80.7651 11.2188C80.1801 11.7661 79.4584 12.1428 78.6773 12.3085C79.0811 13.4179 79.613 14.4756 80.2619 15.4599C80.8075 16.3424 81.4845 17.1351 82.2691 17.8102L82.1412 17.8466C81.2688 18.1664 80.4402 18.5966 79.6753 19.1268L79.5475 19.2109L79.503 18.9307C79.223 17.0181 78.7181 15.1458 77.999 13.3534V13.2637C77.4985 13.4755 76.9736 13.6233 76.4366 13.7035H76.3671V16.855L77.8711 18.4517H73.4509L73.3146 18.2248H77.3373L76.1113 16.9138V13.5046H76.2865C76.8437 13.4422 77.3883 13.2948 77.9017 13.0676C77.8794 13.0256 77.86 12.9808 77.8405 12.9388L77.7599 12.6951L77.7126 12.5886C77.0623 12.7459 76.4018 12.8573 75.736 12.922H75.6471V16.7093L76.609 17.7262H72.8448L73.9401 16.7093V13.908H73.8734C73.5739 13.9729 73.2779 14.0533 72.9866 14.1489H72.9199L72.8448 13.9753C73.0333 13.9001 73.2265 13.8374 73.4231 13.7876L73.8734 13.6727H73.9568V13.2245C73.5354 13.2408 73.1182 13.3153 72.7169 13.4458H72.6196C72.6646 13.2554 72.7222 13.0682 72.792 12.8856L72.906 12.5018V12.4233H73.4926C73.6349 12.4374 73.7783 12.4374 73.9207 12.4233V8.30826C73.665 8.1514 73.3961 8.01736 73.1173 7.90768L73.095 7.88527ZM75.6443 7.65836V12.2497C75.8002 12.2492 75.9557 12.2333 76.1086 12.202V8.02253C76.4713 7.92687 76.8457 7.88349 77.2206 7.89367C77.6604 7.83989 78.1063 7.91388 78.5057 8.10695C78.9052 8.30001 79.2415 8.60409 79.4752 8.98337C79.1439 8.69717 78.7742 8.45952 78.3771 8.27745C78.0143 8.14254 77.6293 8.07883 77.2428 8.08976C76.9388 8.08433 76.6352 8.11727 76.3393 8.18781V12.202H76.431C77.3226 12.0846 78.1721 11.7489 78.9053 11.2244C79.1635 11.0228 79.371 10.7629 79.511 10.4655C79.6511 10.1682 79.7197 9.84183 79.7115 9.51281C79.7131 9.21192 79.646 8.91468 79.5154 8.64411C79.3847 8.37354 79.1941 8.1369 78.9581 7.9525C78.4401 7.5314 77.7883 7.31348 77.1233 7.33902C76.6116 7.32019 76.1034 7.42993 75.6443 7.65836V7.65836ZM79.717 12.7623C80.1215 14.0186 80.7624 15.1847 81.6047 16.1967C82.2135 16.932 82.9341 17.5655 83.7397 18.0735C82.459 18.4186 81.2356 18.9519 80.109 19.6563L80.034 19.7095L79.8699 19.575C80.9244 18.8716 82.0834 18.3421 83.3033 18.0063C81.5208 16.7061 80.1839 14.8793 79.478 12.7791L79.4251 12.6334C81.1469 11.9835 82.0087 10.9741 82.0106 9.60526C81.9743 8.9455 81.7418 8.31201 81.3434 7.78722C81.6205 8.03531 81.8406 8.34125 81.9885 8.68376C82.1363 9.02627 82.2084 9.39712 82.1996 9.77053C82.1996 11.0909 81.3721 12.0881 79.717 12.7623V12.7623Z" />
<path d="M89.1774 6.74234C89.8087 6.72265 90.4356 6.85418 91.0067 7.12611C91.5788 7.39768 92.0775 7.80413 92.4606 8.31106C93.3356 9.52354 93.7713 11.0018 93.695 12.499C93.7644 13.9195 93.3364 15.3195 92.4857 16.4544C92.0902 16.9332 91.5912 17.3144 91.0269 17.5688C90.4626 17.8232 89.8481 17.9441 89.2303 17.9223C88.1774 17.9225 87.159 17.544 86.3585 16.855C85.7234 16.2918 85.226 15.5886 84.9049 14.8C84.5837 14.0114 84.4476 13.1588 84.507 12.3085C84.44 10.8495 84.8936 9.41452 85.7858 8.26343C86.1993 7.76694 86.7197 7.37191 87.3073 7.10835C87.895 6.84478 88.5346 6.71961 89.1774 6.74234ZM89.1774 7.50149C87.2722 7.50149 86.3223 9.18226 86.3279 12.5438C86.3279 15.6588 87.2592 17.2107 89.1385 17.2107C89.553 17.2191 89.9611 17.1074 90.3145 16.8889C90.6678 16.6704 90.9515 16.3543 91.1318 15.9782C91.648 14.8446 91.8827 13.6015 91.8157 12.3561C91.8157 10.5605 91.5961 9.32512 91.154 8.56878C90.9546 8.2219 90.6653 7.93621 90.3172 7.74228C89.969 7.54836 89.575 7.4535 89.1774 7.46787V7.50149ZM91.8741 7.20455C92.7177 7.63552 93.3896 8.34425 93.7784 9.21307C94.2663 10.2354 94.5082 11.3592 94.4845 12.4934C94.5567 14.0873 94.064 15.6551 93.0945 16.9166C92.6619 17.459 92.1104 17.8931 91.4834 18.1847C90.8563 18.4763 90.1708 18.6175 89.4805 18.5974C88.4985 18.5865 87.5502 18.2353 86.7949 17.6029V17.5665C87.4682 17.9916 88.2335 18.2459 89.0256 18.3079C89.8177 18.3699 90.6128 18.2375 91.3431 17.9223C91.9463 17.6456 92.4789 17.2336 92.8999 16.7177C93.8248 15.562 94.3046 14.1087 94.251 12.625C94.2768 11.5073 94.0664 10.3967 93.6338 9.36714C93.2767 8.5056 92.6615 7.77795 91.8741 7.28579V7.20455ZM90.9872 8.77327L90.8454 8.68923C90.391 8.41161 89.8727 8.2581 89.3415 8.24383C87.8384 8.24383 87.0869 9.70796 87.0869 12.6362C87.0869 14.782 87.5456 16.2041 88.463 16.9026L88.3879 16.9866C87.8327 16.5973 87.4119 16.043 87.1841 15.4011C86.9142 14.5422 86.792 13.6431 86.8227 12.7427C86.8227 9.59218 87.6447 8.01692 89.2886 8.01692C89.6105 7.98199 89.9358 8.03116 90.2333 8.15971C90.5308 8.28826 90.7905 8.49185 90.9872 8.75086V8.77327Z"/>
<path d="M105.627 6.8628C105.151 7.06435 104.727 7.37288 104.387 7.76482C104.068 8.36104 103.921 9.03567 103.964 9.71171V17.7794H102.536L98.5601 9.98344V14.9837L98.6574 16.2107C98.6918 16.4605 98.776 16.7008 98.905 16.9169C99.034 17.1331 99.2051 17.3207 99.408 17.4685L99.4775 17.5301C98.7241 17.2724 98.3099 16.4292 98.3099 15.0089V9.56604L97.8651 8.67243V13.5747C97.8062 14.5951 97.9103 15.6185 98.1737 16.6057C98.3175 16.8769 98.5198 17.1122 98.7656 17.2945C99.0114 17.4767 99.2945 17.6013 99.5943 17.659L100.348 18.4153H95.7551L95.6188 18.1884H99.8528L99.4163 17.7178H95.4771C96.0417 17.5651 96.5295 17.2054 96.8448 16.7093C97.1192 16.0257 97.2352 15.288 97.184 14.5523V7.734L96.072 6.78717H100.342L99.1467 7.59674L103.228 15.628V14.6812L99.7249 7.80964L100.906 7.00567L101.07 7.16534L100.02 7.88527L103.228 14.2246V9.79295C103.272 9.12442 103.191 8.45344 102.989 7.81524C102.705 7.3774 102.289 7.0434 101.802 6.8628H105.627ZM105.927 7.49029L105.769 7.74801C105.592 7.7752 105.422 7.83902 105.271 7.93545C105.12 8.03187 104.99 8.15881 104.89 8.30827C104.703 8.74977 104.623 9.22995 104.657 9.70891V18.4825H102.844L102.733 18.2528H104.432V9.79295C104.378 9.21472 104.485 8.6329 104.74 8.11218C104.883 7.9289 105.063 7.77809 105.268 7.66957C105.474 7.56544 105.698 7.50444 105.927 7.49029V7.49029Z" fill="black"/>
</svg>
