<svg viewBox="0 0 18 34" xmlns="http://www.w3.org/2000/svg">
<path d="M1.02032 18.1386H4.69922V33.284C4.69922 33.583 4.94151 33.8253 5.24053 33.8253H11.4782C11.7773 33.8253 12.0196 33.583 12.0196 33.284V18.2099H16.2488C16.5237 18.2099 16.7551 18.0036 16.7865 17.7305L17.4288 12.1547C17.4465 12.0013 17.3979 11.8476 17.2952 11.7326C17.1925 11.6174 17.0455 11.5514 16.8912 11.5514H12.0198V8.05625C12.0198 7.00263 12.5871 6.46835 13.7061 6.46835C13.8656 6.46835 16.8912 6.46835 16.8912 6.46835C17.1902 6.46835 17.4325 6.22595 17.4325 5.92704V0.808995C17.4325 0.509971 17.1902 0.267678 16.8912 0.267678H12.5017C12.4707 0.266162 12.4019 0.263672 12.3006 0.263672C11.539 0.263672 8.89161 0.413183 6.80039 2.33702C4.48334 4.46895 4.80542 7.02158 4.8824 7.46416V11.5513H1.02032C0.721297 11.5513 0.479004 11.7936 0.479004 12.0926V17.5972C0.479004 17.8962 0.721297 18.1386 1.02032 18.1386Z"/>
</svg>
