<svg viewBox="0 0 39 27" xmlns="http://www.w3.org/2000/svg">
<path d="M37.1823 2.38544C35.803 0.745922 33.2566 0.0771484 28.3935 0.0771484H10.7405C5.76613 0.0771484 3.17657 0.789062 1.80253 2.53458C0.462891 4.23647 0.462891 6.74406 0.462891 10.2146V16.8295C0.462891 23.5532 2.05237 26.9669 10.7405 26.9669H28.3937C32.6109 26.9669 34.9478 26.3768 36.4596 24.9299C38.01 23.4462 38.6715 21.0236 38.6715 16.8295V10.2146C38.6715 6.55462 38.5679 4.03224 37.1823 2.38544ZM24.993 14.4353L16.9768 18.6249C16.7976 18.7185 16.6016 18.765 16.4059 18.765C16.1843 18.765 15.9632 18.7053 15.7673 18.5868C15.3985 18.3633 15.1733 17.9636 15.1733 17.5325V9.1803C15.1733 8.74989 15.3979 8.35055 15.7659 8.12697C16.1341 7.90339 16.592 7.8881 16.974 8.08654L24.9901 12.2491C25.398 12.4608 25.6541 12.8818 25.6547 13.3412C25.6552 13.801 25.4002 14.2226 24.993 14.4353Z"/>
</svg>
