<svg width="80" height="73" viewBox="0 0 80 73" fill="none" xmlns="http://www.w3.org/2000/svg">
<path d="M8.91018 0.767768C8.16738 0.400969 7.26787 0.705777 6.90107 1.44858L0.923743 13.5532C0.556944 14.296 0.861752 15.1955 1.60455 15.5623C2.34735 15.9291 3.24686 15.6243 3.61366 14.8815L8.92684 4.12183L19.6865 9.43501C20.4293 9.80181 21.3288 9.497 21.6956 8.7542C22.0624 8.01141 21.7576 7.1119 21.0148 6.7451L8.91018 0.767768ZM6.82538 2.59413C7.30762 4.01723 7.79747 5.38852 8.29465 6.71031L11.1026 5.65412C10.6175 4.3645 10.1387 3.02439 9.66668 1.63132L6.82538 2.59413ZM11.6769 14.7345C13.0182 17.5676 14.4033 20.1154 15.8279 22.4156L18.3784 20.8361C17.0176 18.6389 15.6855 16.1907 14.3884 13.4508L11.6769 14.7345ZM20.9661 29.5132C23.023 31.9287 25.1373 33.9593 27.2942 35.7035L29.1806 33.3709C27.1661 31.7418 25.1852 29.8407 23.2502 27.5682L20.9661 29.5132ZM34.6334 40.5999C37.2545 42.0434 39.8963 43.2367 42.5147 44.3438L43.683 41.5806C41.1057 40.4909 38.5712 39.3436 36.0805 37.972L34.6334 40.5999ZM50.4178 47.6336C52.97 48.7385 55.4792 49.9245 57.9412 51.3541L59.4476 48.7597C56.8453 47.2487 54.2191 46.0102 51.6096 44.8805L50.4178 47.6336ZM64.7149 56.134C66.6705 57.8092 68.593 59.7595 70.4707 62.0781L72.8021 60.19C70.8101 57.7303 68.7605 55.6494 66.6666 53.8556L64.7149 56.134ZM75.2257 68.9663C75.912 70.1249 76.5906 71.3501 77.2607 72.6473L79.9261 71.2705C79.2305 69.9239 78.5239 68.6478 77.8069 67.4374L75.2257 68.9663Z" fill="#DADC74"/>
</svg>
