<svg xmlns="http://www.w3.org/2000/svg" xmlns:xlink="http://www.w3.org/1999/xlink" viewBox="0 0 134.8 41.03"><defs><style>.cls-1{fill:url(#Безымянный_градиент_20);}.cls-2{fill:url(#Безымянный_градиент_67);}.cls-3{fill:url(#Безымянный_градиент_486);}.cls-4{fill:#88c057;}.cls-5{fill:url(#Безымянный_градиент_485);}.cls-6{fill:url(#Безымянный_градиент_488);}.cls-7{fill:url(#Безымянный_градиент_384);}.cls-8{fill:url(#Безымянный_градиент_483);}.cls-9{fill:#b7b9c0;}.cls-10{fill:#9b9da6;}.cls-11{fill:url(#Безымянный_градиент_6);}.cls-12{fill:url(#Безымянный_градиент_6-2);}.cls-13{fill:#d8d8d8;}.cls-14{fill:#919191;}.cls-15{fill:#b4b4b5;}.cls-16{fill:#7b7c7c;}.cls-17{fill:url(#Безымянный_градиент_13);}.cls-18{fill:url(#Безымянный_градиент_13-2);}</style><radialGradient id="Безымянный_градиент_20" cx="51.74" cy="28.05" r="12.98" gradientUnits="userSpaceOnUse"><stop offset="0" stop-color="#29abe2"/><stop offset="1" stop-color="#2e3192"/></radialGradient><linearGradient id="Безымянный_градиент_67" x1="47.29" y1="24.19" x2="63.55" y2="21.02" gradientUnits="userSpaceOnUse"><stop offset="0" stop-color="#006837"/><stop offset="1" stop-color="#8cc63f"/></linearGradient><linearGradient id="Безымянный_градиент_486" x1="49.71" y1="41.2" x2="48.97" y2="30.58" gradientUnits="userSpaceOnUse"><stop offset="0" stop-color="#d3ff3f"/><stop offset="0.77" stop-color="#ffc67b"/></linearGradient><linearGradient id="Безымянный_градиент_485" x1="44.35" y1="39.72" x2="51.77" y2="34.32" gradientUnits="userSpaceOnUse"><stop offset="0" stop-color="#d3ff3f"/><stop offset="0.54" stop-color="#ffc67b"/></linearGradient><linearGradient id="Безымянный_градиент_488" x1="54.12" y1="40.01" x2="45.33" y2="29.53" gradientUnits="userSpaceOnUse"><stop offset="0" stop-color="#8cc63f"/><stop offset="0.43" stop-color="#70d369"/><stop offset="0.99" stop-color="#49af9d"/></linearGradient><linearGradient id="Безымянный_градиент_384" x1="54.73" y1="23.34" x2="63.64" y2="21.61" xlink:href="#Безымянный_градиент_488"/><linearGradient id="Безымянный_градиент_483" x1="56.91" y1="23.03" x2="63.1" y2="21.02" gradientUnits="userSpaceOnUse"><stop offset="0" stop-color="#d3ff3f"/><stop offset="0.99" stop-color="#ffc67b"/></linearGradient><linearGradient id="Безымянный_градиент_6" x1="53.4" y1="5.79" x2="57.97" y2="1.53" gradientTransform="translate(32.95 -47.3) rotate(62.2)" gradientUnits="userSpaceOnUse"><stop offset="0" stop-color="#2e3192"/><stop offset="1"/></linearGradient><linearGradient id="Безымянный_градиент_6-2" x1="64.4" y1="11.59" x2="68.97" y2="7.33" gradientTransform="translate(43.95 -53.94) rotate(62.2)" xlink:href="#Безымянный_градиент_6"/><linearGradient id="Безымянный_градиент_13" x1="62.65" y1="9.46" x2="70.72" y2="9.46" gradientUnits="userSpaceOnUse"><stop offset="0" stop-color="#f2f2f2"/><stop offset="1" stop-color="#999"/></linearGradient><linearGradient id="Безымянный_градиент_13-2" x1="51.65" y1="3.66" x2="59.71" y2="3.66" xlink:href="#Безымянный_градиент_13"/></defs><g id="Слой_2" data-name="Слой 2"><g id="Слой_1-2" data-name="Слой 1"><path d="M18.56,14.3l-3.08,6.08a6.63,6.63,0,0,0-1.63-4A4.66,4.66,0,0,0,10.34,15a5.6,5.6,0,0,0-4.83,2.42,11.44,11.44,0,0,0-1.73,6.75q0,9.57,7.83,9.56h2.66V25.2H10.11a8.71,8.71,0,0,1-1.94-.15A2.65,2.65,0,0,1,7,24.41V24a3.24,3.24,0,0,0,1.18.58,9,9,0,0,0,1.94.14h4.11v-.89H8.93c-1.64,0-2.46-.59-2.46-1.78a1.77,1.77,0,0,1,.42-1.19,1.24,1.24,0,0,1,1-.5,1.06,1.06,0,0,1,.75.32,1,1,0,0,1,.32.74c0,.48-.18.77-.53.84L8,22.34c-.14,0-.2.09-.2.17s.18.21.54.21H19.83L17.56,25V33.1l2.11,1.81H9.56a10.09,10.09,0,0,1-3.47-.51,8.62,8.62,0,0,1-2.77-1.82A10.5,10.5,0,0,1,0,24.44q0-5.27,3.14-8.22a9.14,9.14,0,0,1,6.51-2.6,14.75,14.75,0,0,1,3.86.6,14.38,14.38,0,0,0,2.94.61A4.77,4.77,0,0,0,18.56,14.3Zm-4.29,3.55-.3-.21a6.11,6.11,0,0,0-3.43-1.34,4.53,4.53,0,0,0-3.26,1.34,5.77,5.77,0,0,0-1.43,2.59,16.71,16.71,0,0,0-.43,4.23,15.27,15.27,0,0,0,.66,5.1,7.48,7.48,0,0,0,2.43,3.19v.18a6.47,6.47,0,0,1-2.76-3.21A15.3,15.3,0,0,1,4.9,24.1,10.71,10.71,0,0,1,6.38,18a4.68,4.68,0,0,1,4.12-2.17,4.54,4.54,0,0,1,3.77,1.91Zm6.28,5.82-1.71,1.7v7.74l2.75,3.16L15,36.22l-5.95.06c-.37,0-.66,0-.86,0a4.3,4.3,0,0,1-2.09-.91h.34a7.81,7.81,0,0,0,3.08.5l.82,0H20.66l-2.28-2.53V25.2l1.9-1.91Zm-1-8.33-2.82,5.55-.4-.18,2.84-5.57Z"/><path d="M36.39,20.94l-.18.21a11.16,11.16,0,0,0-1.82,3.22L34.22,24a3.65,3.65,0,0,0-1.33-1.74,5.76,5.76,0,0,0-2.54-.39c-.56,0-1.23,0-2,.05v5.17h.72V22.51c.57-.05,1.11-.08,1.63-.08a5.48,5.48,0,0,1,2.1.3A2.87,2.87,0,0,1,34,23.91l-.22-.16a5.56,5.56,0,0,0-1.32-.86,6.08,6.08,0,0,0-1.59-.13c-.24,0-.67,0-1.28,0h-.24v4.27H31.4l1.45-2v4.84L31.4,28.06H28.33v6.3h.72V28.59h2.44l.29.29H29.33v5.48A11.21,11.21,0,0,0,32.59,34a2.71,2.71,0,0,0,1.52-1.28l.59-1,.14-.25a7,7,0,0,0,.72,2A9.39,9.39,0,0,0,37,35.19H24.4l1.71-1.3v-5a4.14,4.14,0,0,0-1.71.58l-.15-.23a3.85,3.85,0,0,1,1.86-.64v-.53l-.27,0a3.09,3.09,0,0,0-2.09.85,2.25,2.25,0,0,1,2.36-1.8v-4.8L24.4,20.94Zm1.88,14.32-.58,1H25.42L25.24,36h12.3l.38-.7a8.92,8.92,0,0,1-2.28-3.19l.36.13a9.35,9.35,0,0,0,2.09,2.88Zm-4.65-9.8v5l-.28-.15v-5Zm3.3-3.74-.07.1A12.86,12.86,0,0,0,35,24.91l-.2-.23a13.31,13.31,0,0,1,2-3.19Z"/><path d="M66.57,14.59H74.3L72,16.77v10l.91-1v-8.8l1.85-1.8.25.36-1.7,1.65V25.2l5.12-6.11a3.91,3.91,0,0,0,1.11-2.38,1.63,1.63,0,0,0-.63-1.2,3.16,3.16,0,0,0-1.52-.75v-.17h8.7v.17c-1.9.46-4,2-6.16,4.66l-2.29,2.72L83.73,34l2.78,1.8H77.93l2.17-1.61L76,26l-2.69,3.29V34L76,37.14H67.53l-.45-.45H75l-2.1-2.52V29.05l2.88-3.54-.37-.73L72,28.85V34l2,1.8H66.44l2.26-1.93V16.56ZM86.92,16.1c-1.63.11-3.26,1.06-4.87,2.85l-2.89,3.21L85,34l4.67,3.16H79.16l-.47-.45h9.57L84.74,34.3l-6-12.14,3.08-3.47a7.87,7.87,0,0,1,5-2.94Z"/><path d="M91.13,23.16a11.19,11.19,0,0,1,5.73-1.54,6.91,6.91,0,0,1,3.92,1,3.08,3.08,0,0,1,1.55,2.63,3.15,3.15,0,0,1-1,2.31A5.87,5.87,0,0,1,98.55,29a20.12,20.12,0,0,0,2.11,4.16,13.28,13.28,0,0,0,2.67,3.1l-.17.05A14.49,14.49,0,0,0,99.88,38l-.17.11-.06-.36a32.22,32.22,0,0,0-2-7.36l0-.12a8.53,8.53,0,0,1-2.08.58h-.09V35l2,2.11H91.6l-.18-.3h5.35l-1.63-1.73V30.58l.23,0A7.38,7.38,0,0,0,97.52,30a1.65,1.65,0,0,1-.08-.17l-.11-.32-.06-.14a19.16,19.16,0,0,1-2.63.44l-.12,0v5l1.28,1.34h-5l1.46-1.34V31.11h-.09a11.6,11.6,0,0,0-1.18.32l-.09,0-.1-.23a6.51,6.51,0,0,1,.77-.25l.6-.15.09,0v-.59a6.1,6.1,0,0,0-1.65.29l-.13,0a5.88,5.88,0,0,1,.23-.73l.15-.51,0-.1c.33,0,.6,0,.78,0a3.4,3.4,0,0,0,.57,0V23.72a6.65,6.65,0,0,0-1.07-.53Zm3.39-.3v6.06a3.11,3.11,0,0,0,.62-.06V23.34a5.33,5.33,0,0,1,1.48-.17,3.09,3.09,0,0,1,3,1.44,6.15,6.15,0,0,0-1.46-.93,4,4,0,0,0-1.51-.25,4.79,4.79,0,0,0-1.2.13v5.3l.12,0a7.35,7.35,0,0,0,3.29-1.28,2.78,2.78,0,0,0,1.07-2.26,2.58,2.58,0,0,0-1-2.06,3.68,3.68,0,0,0-2.44-.81A4.15,4.15,0,0,0,94.52,22.86Zm5.42,6.74a13.57,13.57,0,0,0,2.51,4.53,11.92,11.92,0,0,0,2.84,2.48,17.85,17.85,0,0,0-4.83,2.09l-.1.07-.22-.18a15.82,15.82,0,0,1,4.57-2.07,14.11,14.11,0,0,1-5.09-6.9l-.07-.19c2.29-.86,3.44-2.19,3.44-4a4.36,4.36,0,0,0-.89-2.4,3.37,3.37,0,0,1,1.14,2.62Q103.24,28.26,99.94,29.6Z"/><path d="M112.52,21.66a5.29,5.29,0,0,1,4.37,2.07,8.66,8.66,0,0,1,1.63,5.52,8,8,0,0,1-1.61,5.22,5.36,5.36,0,0,1-4.33,1.94A5.89,5.89,0,0,1,108.76,35a7.31,7.31,0,0,1-2.46-6A8.06,8.06,0,0,1,108,23.66,5.62,5.62,0,0,1,112.52,21.66Zm0,1q-3.8,0-3.79,6.67c0,4.11,1.24,6.16,3.74,6.16a2.88,2.88,0,0,0,2.65-1.63,10.11,10.11,0,0,0,.91-4.78c0-2.37-.29-4-.88-5A2.92,2.92,0,0,0,112.52,22.63Zm3.59-.39a5.5,5.5,0,0,1,2.53,2.65,9.49,9.49,0,0,1,.94,4.33,8.9,8.9,0,0,1-1.84,5.84,5.94,5.94,0,0,1-4.82,2.22A5.68,5.68,0,0,1,109.35,36v-.05a5.73,5.73,0,0,0,3.49,1,5.83,5.83,0,0,0,4.63-2.12,8.12,8.12,0,0,0,1.8-5.43,10.44,10.44,0,0,0-.82-4.3,5.91,5.91,0,0,0-2.34-2.75Zm-1.18,2.07-.19-.11a4.11,4.11,0,0,0-2-.59q-3,0-3,5.8,0,4.25,1.83,5.63l-.1.11a4.3,4.3,0,0,1-1.6-2.09,10.44,10.44,0,0,1-.48-3.51q0-6.24,3.28-6.24A2.51,2.51,0,0,1,114.93,24.31Z"/><path d="M134.4,21.81A4.56,4.56,0,0,0,132.75,23a4.78,4.78,0,0,0-.56,2.57V36.22h-1.9L125,25.93v6.6l.13,1.62a2.46,2.46,0,0,0,1,1.66l.09.08c-1-.34-1.55-1.45-1.55-3.31v-7.2l-.61-1.18v6.47a12.48,12.48,0,0,0,.41,4,2.69,2.69,0,0,0,1.89,1.39l1,1h-6.09l-.18-.3h5.63l-.58-.62H120.9a3.13,3.13,0,0,0,1.82-1.33,6.43,6.43,0,0,0,.45-2.85v-9l-1.49-1.25h5.68l-1.59,1.07,5.43,10.6V32.13l-4.66-9.07L128.11,22l.22.21-1.4.95,4.27,8.37V25.68a7,7,0,0,0-.32-2.61,3.2,3.2,0,0,0-1.58-1.26Zm.4.83-.21.34a1.71,1.71,0,0,0-1.17.74,4,4,0,0,0-.31,1.84V37.14H130.7l-.15-.3h2.26V25.67a4.17,4.17,0,0,1,.41-2.2A2.21,2.21,0,0,1,134.8,22.64Z"/></g><g id="Слой_4" data-name="Слой 4"><circle class="cls-1" cx="51.74" cy="28.05" r="12.98"/><path class="cls-2" d="M51.74,15.07a12.85,12.85,0,0,0-5.08,1c-.07.42-.43,1.15-.42,1.38,0,0,3.3-3.31,2.9-1.07-.26,1.44-2.92,1.43-2.8,2.89,2.79,1.09,3.76-2.08,6.13-2.07.79,0,2.82-1.24,3.2-1,1.57,1-.35,4.69-1.55,3.47s-2.79.4-2.72,2.2c.6,0,.85-1.7,1.39-1.13A1.44,1.44,0,0,1,52.35,23c-.83.29-4.06-2.19-3.27-.31.88,2.09-2.62,3.71.91,2.86,1.66-.4,1.11.87,1.9,1.47s.52-1,1.2-.73c1,.39-.17,1.37,1.38.66,1.82-.83,1.14.46,1.69,1.31,1.05,1.58,3.62,3.1,5,1,.32-.5.12-4.39,2.12-1.78,1.27,1.66.83-2,1-2.91A13,13,0,0,0,51.74,15.07Z"/><path class="cls-3" d="M53.49,33.91l-2.39-1.8-1.6.07-1.67-.53-1.3-.9-3,.69L42.36,32,41,33.85,41.48,36l.42.52,2.51,1.17,1.7.23,1,2.07,0,.21a13,13,0,0,0,4.6.84A12.77,12.77,0,0,0,55,40.62l.34-2,1.55-1.26.64-2-3.23,0Z"/><path class="cls-4" d="M38.93,30.13H39c.59-.58,1.07-.68,1.55-1.55s-.09-.87,0-2.32-.09-.78,0-2.32c0-.56,0-.87-.7-1.09a12.94,12.94,0,0,0-.92,7.29Z"/><path class="cls-5" d="M52.19,38.79c-.49,0-2.28-.6-2.69-1.34s-1.3-2-1.34-1.79a67.49,67.49,0,0,1-6.86-2.21l-.3.4.41,1.83.78,1,2.14,1a.55.55,0,0,0,.18.06l1.26.17a.66.66,0,0,1,.49.35L47.11,40l0,.21a13,13,0,0,0,7.42.53A.62.62,0,0,0,55,40.2l.19-1.12c-.23-.07-.49-.16-.81-.29C53.19,38.31,52.67,38.83,52.19,38.79Z"/><path class="cls-6" d="M56.86,37.33l.64-2-3.23,0-.78-1.4-2.39-1.8-1.61.07-1.66-.53-1.3-.9-3,.69L42.36,32,41.3,33.45c2.78,1,5.57,1.62,6.86,2.21.71.41.93,1,1.34,1.79s2.2,1.3,2.69,1.34,1-.48,2.23,0c.32.13.58.22.81.29l.08-.49Z"/><path class="cls-7" d="M56.51,18.28v0a1.42,1.42,0,0,1-.43.94l-1.25,1.26a1.44,1.44,0,0,0-.17,1.84c.7,1,1.72,2.51,1.82,2.76a3.48,3.48,0,0,0,2.5.63c.39-.24,1.87-1.49,2.5-.63.43.6.38,1.12.64,1.49a1.15,1.15,0,0,1,.71.41c.4.13.87.25,1.28.35.12-.71,0-1.91.11-2.56a1.46,1.46,0,0,0-.06-.51,13,13,0,0,0-5.45-7.17A1.45,1.45,0,0,0,56.51,18.28Z"/><path class="cls-8" d="M58.09,18c0,.57-.06,1-.07,1.3a.66.66,0,0,1-.21.45l-1.18,1.18a.7.7,0,0,0-.08.9c.49.71,1.37,2,1.45,2.2a2.48,2.48,0,0,0,1.79.45c.28-.17,1.35-1.06,1.79-.45s.17,1.12.9,1.35,1.46.37,1.71.43c0-.42,0-.81,0-1.08a.71.71,0,0,0,0-.29,13,13,0,0,0-5-7A.71.71,0,0,0,58.09,18Z"/></g><g id="Слой_2_копия_" data-name="Слой 2 (копия)"><path class="cls-9" d="M57.71,13.16a1.37,1.37,0,0,0,1.84-.57L58.34,12l-1.2-.63A1.36,1.36,0,0,0,57.71,13.16Z"/><path class="cls-10" d="M57.71,13.16,58.34,12l-1.2-.63A1.36,1.36,0,0,0,57.71,13.16Z"/><rect class="cls-10" x="58.11" y="5.98" width="0.36" height="1.04" transform="translate(25.35 55.03) rotate(-62.2)"/><rect class="cls-10" x="59.25" y="3.83" width="0.36" height="1.04" transform="translate(27.85 54.88) rotate(-62.2)"/><rect class="cls-11" x="53.46" y="0.55" width="4.45" height="6.23" transform="translate(26.47 51.21) rotate(-62.2)"/><rect class="cls-9" x="62.69" y="8.4" width="0.36" height="1.04" transform="translate(25.66 60.37) rotate(-62.2)"/><rect class="cls-9" x="63.82" y="6.25" width="0.36" height="1.04" transform="translate(28.16 60.22) rotate(-62.2)"/><rect class="cls-12" x="64.46" y="6.35" width="4.45" height="6.23" transform="translate(27.21 64.04) rotate(-62.2)"/><path class="cls-13" d="M58.18,12.26l2.3,1.22.16-.31A2.6,2.6,0,1,0,56,10.74l-.16.31Z"/><path class="cls-14" d="M58.18,12.26l1.37-2.61A2.61,2.61,0,0,0,56,10.74l-.16.31Z"/><polygon class="cls-15" points="58.18 9.34 59.38 9.98 60.59 10.61 61.6 10.21 64.43 4.84 64.19 3.78 62.99 3.15 61.78 2.51 60.77 2.91 57.94 8.28 58.18 9.34"/><polygon class="cls-16" points="62.6 3.88 62.99 3.15 61.78 2.51 60.77 2.91 57.94 8.28 58.18 9.34 59.38 9.98 59.77 9.24 62.6 3.88"/><path class="cls-17" d="M68.48,13.12l2.24-4.25L64.9,5.8l-2.25,4.25ZM64,8.25l2.44,1.29-.88,1.65L63.13,9.9Zm1.88,3.11.87-1.66L69.2,11l-.87,1.65Zm3.48-.68L66.93,9.39l.87-1.65L70.24,9ZM67.48,7.57l-.87,1.65L64.17,7.94,65,6.28Z"/><path class="cls-18" d="M51.65,4.25l5.82,3.07,2.24-4.25L53.89,0ZM53,2.45l2.44,1.28-.87,1.66L52.13,4.1Zm1.88,3.1.88-1.65L58.2,5.19l-.88,1.65Zm3.48-.68L55.92,3.59l.87-1.66,2.44,1.29Zm-1.88-3.1-.87,1.65L53.17,2.13,54,.48Z"/><polygon class="cls-13" points="59.77 9.24 61.6 10.21 64.43 4.84 62.6 3.88 60.77 2.91 57.94 8.28 59.77 9.24"/><rect class="cls-14" x="57.24" y="5.04" width="6.07" height="2.07" transform="translate(26.78 56.55) rotate(-62.2)"/></g></g></svg>