<svg width="20" height="14" viewBox="0 0 20 14" fill="none" xmlns="http://www.w3.org/2000/svg">
<path d="M6.05988 13.16C6.37987 13.3263 6.75251 13.3597 7.09697 13.253C7.44143 13.1463 7.72993 12.908 7.89988 12.59L6.68988 12L5.48988 11.37C5.33641 11.6844 5.31001 12.0459 5.41617 12.3792C5.52232 12.7126 5.75287 12.9922 6.05988 13.16Z" fill="#B7B9C0"/>
<path d="M6.05988 13.16L6.68988 12L5.48988 11.37C5.33641 11.6844 5.31001 12.0459 5.41617 12.3792C5.52232 12.7126 5.75287 12.9922 6.05988 13.16Z" fill="#9B9DA6"/>
<path d="M6.25945 6.09754L6.09155 6.41599L7.01152 6.90103L7.17942 6.58258L6.25945 6.09754Z" fill="#9B9DA6"/>
<path d="M7.38934 3.9364L7.22144 4.25485L8.1414 4.73989L8.3093 4.42144L7.38934 3.9364Z" fill="#9B9DA6"/>
<path d="M2.31492 0.240433L0.239502 4.17682L5.75044 7.08241L7.82586 3.14602L2.31492 0.240433Z" fill="url(#paint0_linear_14_42)"/>
<path d="M10.8461 8.5148L10.6782 8.83325L11.5982 9.31829L11.7661 8.99984L10.8461 8.5148Z" fill="#B7B9C0"/>
<path d="M11.9714 6.36252L11.8035 6.68097L12.7234 7.16601L12.8913 6.84756L11.9714 6.36252Z" fill="#B7B9C0"/>
<path d="M13.3159 6.04509L11.2405 9.98148L16.7514 12.8871L18.8268 8.95068L13.3159 6.04509Z" fill="url(#paint1_linear_14_42)"/>
<path d="M6.52994 12.26L8.82994 13.48L8.98994 13.17C9.31218 12.5547 9.37679 11.8366 9.16956 11.1736C8.96234 10.5107 8.50024 9.95723 7.88494 9.63499C7.26964 9.31275 6.55153 9.24814 5.88859 9.45537C5.22565 9.6626 4.67218 10.1247 4.34994 10.74L4.18994 11.05L6.52994 12.26Z" fill="#D8D8D8"/>
<path d="M6.52994 12.26L7.89994 9.64999C7.59574 9.48632 7.26208 9.38467 6.9183 9.35092C6.57452 9.31718 6.22746 9.35201 5.89724 9.4534C5.56703 9.55479 5.26022 9.72072 4.99461 9.94158C4.729 10.1624 4.50988 10.4338 4.34994 10.74L4.18994 11.05L6.52994 12.26Z" fill="#919191"/>
<path d="M6.53004 9.34001L7.73004 9.98001L8.94004 10.61L9.95004 10.21L12.78 4.84001L12.54 3.78001L11.34 3.15001L10.13 2.51001L9.12004 2.91001L6.29004 8.28001L6.53004 9.34001Z" fill="#B4B4B5"/>
<path d="M10.95 3.88001L11.34 3.15001L10.13 2.51001L9.12004 2.91001L6.29004 8.28001L6.53004 9.34001L7.73004 9.98001L8.12004 9.24001L10.95 3.88001Z" fill="#7B7C7C"/>
<path d="M16.83 13.12L19.07 8.86999L13.25 5.79999L11 10.05L16.83 13.12ZM12.35 8.24999L14.79 9.53999L13.91 11.19L11.48 9.89999L12.35 8.24999ZM14.23 11.36L15.1 9.69999L17.55 11L16.68 12.65L14.23 11.36ZM17.71 10.68L15.28 9.38999L16.15 7.73999L18.59 8.99999L17.71 10.68ZM15.83 7.56999L14.96 9.21999L12.52 7.93999L13.35 6.27999L15.83 7.56999Z" fill="url(#paint2_linear_14_42)"/>
<path d="M0 4.25L5.82 7.32L8.06 3.07L2.24 0L0 4.25ZM1.35 2.45L3.79 3.73L2.92 5.39L0.48 4.1L1.35 2.45ZM3.23 5.55L4.11 3.9L6.55 5.19L5.67 6.84L3.23 5.55ZM6.71 4.87L4.27 3.59L5.14 1.93L7.58 3.22L6.71 4.87ZM4.83 1.77L3.96 3.42L1.52 2.13L2.35 0.48L4.83 1.77Z" fill="url(#paint3_linear_14_42)"/>
<path d="M8.12004 9.24L9.95004 10.21L12.78 4.84L10.95 3.88L9.12004 2.91L6.29004 8.28L8.12004 9.24Z" fill="#D8D8D8"/>
<path d="M9.11515 2.89778L6.28418 8.26718L8.11526 9.2326L10.9462 3.8632L9.11515 2.89778Z" fill="#919191"/>
<defs>
<linearGradient id="paint0_linear_14_42" x1="1.74671" y1="5.79297" x2="6.31671" y2="1.53297" gradientUnits="userSpaceOnUse">
<stop stop-color="#2E3192"/>
<stop offset="1"/>
</linearGradient>
<linearGradient id="paint1_linear_14_42" x1="12.7435" y1="11.5958" x2="17.3135" y2="7.33578" gradientUnits="userSpaceOnUse">
<stop stop-color="#2E3192"/>
<stop offset="1"/>
</linearGradient>
<linearGradient id="paint2_linear_14_42" x1="11" y1="9.45999" x2="19.07" y2="9.45999" gradientUnits="userSpaceOnUse">
<stop stop-color="#F2F2F2"/>
<stop offset="1" stop-color="#999999"/>
</linearGradient>
<linearGradient id="paint3_linear_14_42" x1="0" y1="3.66" x2="8.06" y2="3.66" gradientUnits="userSpaceOnUse">
<stop stop-color="#F2F2F2"/>
<stop offset="1" stop-color="#999999"/>
</linearGradient>
</defs>
</svg>
