<svg width="135" height="26" viewBox="0 0 135 26" fill="#fff" xmlns="http://www.w3.org/2000/svg">
<path d="M18.56 1.29998L15.48 7.37998C15.3984 5.90208 14.8246 4.49399 13.85 3.37998C13.3934 2.91805 12.8453 2.55667 12.2408 2.31902C11.6364 2.08137 10.9889 1.9727 10.34 1.99998C9.39613 1.96329 8.45834 2.16592 7.61386 2.58904C6.76937 3.01216 6.04563 3.642 5.50997 4.41998C4.24542 6.43534 3.64069 8.79483 3.77997 11.17C3.77997 17.55 6.38997 20.7367 11.61 20.73H14.27V12.2H10.11C9.45973 12.2226 8.80901 12.1723 8.16997 12.05C7.73179 11.9399 7.32904 11.7196 6.99997 11.41V11C7.34953 11.2719 7.75113 11.4693 8.17997 11.58C8.81968 11.6966 9.47015 11.7435 10.12 11.72H14.23V10.83H8.92997C7.28997 10.83 6.46997 10.24 6.46997 9.04998C6.45901 8.61519 6.60852 8.19158 6.88997 7.85998C7.00586 7.70416 7.15673 7.57773 7.33042 7.49088C7.50412 7.40404 7.69578 7.3592 7.88997 7.35998C8.02992 7.36117 8.16825 7.39006 8.29697 7.44498C8.4257 7.49991 8.54227 7.57978 8.63997 7.67998C8.74175 7.77437 8.82276 7.88891 8.87785 8.01631C8.93294 8.14371 8.96091 8.28118 8.95997 8.41998C8.95997 8.89998 8.77997 9.18998 8.42997 9.25998L7.99997 9.33998C7.85997 9.33998 7.79997 9.42998 7.79997 9.50998C7.79997 9.58998 7.97997 9.71998 8.33997 9.71998H19.83L17.56 12V20.1L19.67 21.91H9.55997C8.3824 21.9439 7.208 21.7713 6.08997 21.4C5.0576 20.9782 4.11688 20.3601 3.31997 19.58C2.21119 18.5437 1.34023 17.2794 0.767079 15.8742C0.19393 14.4689 -0.0677824 12.9561 -2.82135e-05 11.44C-2.82135e-05 7.92665 1.04664 5.18665 3.13997 3.21998C4.0006 2.37953 5.01867 1.71723 6.1358 1.27107C7.25293 0.824901 8.44715 0.603644 9.64997 0.619984C10.9575 0.647967 12.2556 0.849737 13.51 1.21998C14.466 1.52536 15.4514 1.7298 16.45 1.82998C17.1847 1.81821 17.9069 1.63683 18.56 1.29998ZM14.27 4.84998L13.97 4.63998C12.9916 3.85121 11.7939 3.38328 10.54 3.29998C9.93461 3.29418 9.33423 3.40977 8.7743 3.63992C8.21437 3.87008 7.70625 4.21013 7.27997 4.63998C6.58631 5.36436 6.09344 6.25704 5.84997 7.22998C5.52711 8.61592 5.3826 10.0374 5.41997 11.46C5.35007 13.1851 5.57324 14.9095 6.07997 16.56C6.58453 17.8247 7.42472 18.9276 8.50997 19.75V19.93C7.25604 19.1998 6.28398 18.0692 5.74997 16.72C5.1181 14.9162 4.82979 13.01 4.89997 11.1C4.77301 8.96447 5.28848 6.83987 6.37997 4.99998C6.81758 4.31016 7.42813 3.7469 8.15093 3.3662C8.87372 2.98551 9.68358 2.80064 10.5 2.82998C11.2361 2.8188 11.964 2.98682 12.6208 3.31956C13.2775 3.6523 13.8435 4.13979 14.27 4.73998V4.84998ZM20.55 10.67L18.84 12.37V20.11L21.59 23.27L15 23.22L9.04997 23.28C8.67997 23.28 8.38997 23.28 8.18997 23.28C7.42412 23.1702 6.70209 22.8558 6.09997 22.37H6.43997C7.42255 22.7421 8.47012 22.9122 9.51997 22.87H10.34H20.66L18.38 20.34V12.2L20.28 10.29L20.55 10.67ZM19.55 2.33998L16.73 7.88998L16.33 7.70998L19.17 2.13998L19.55 2.33998Z"/>
<path d="M36.39 8L36.21 8.21C35.4284 9.17463 34.8133 10.2629 34.39 11.43L34.22 11.06C33.9652 10.3575 33.501 9.75018 32.89 9.32C32.0835 9.00038 31.2152 8.86707 30.35 8.93C29.79 8.93 29.12 8.93 28.35 8.98V14.15H29.07V9.57C29.64 9.52 30.18 9.49 30.7 9.49C31.4129 9.45227 32.1262 9.55417 32.8 9.79C33.3089 10.0546 33.7269 10.4656 34 10.97L33.78 10.81C33.383 10.4621 32.9386 10.1726 32.46 9.95C31.938 9.83702 31.4034 9.79331 30.87 9.82C30.63 9.82 30.2 9.82 29.59 9.82H29.35V14.09H31.4L32.85 12.09V16.93L31.4 15.12H28.33V21.42H29.05V15.65H31.49L31.78 15.94H29.33V21.42C30.4284 21.4605 31.5269 21.3392 32.59 21.06C33.2405 20.8412 33.7837 20.3837 34.11 19.78L34.7 18.78L34.84 18.53C34.9768 19.2294 35.2196 19.9039 35.56 20.53C35.9695 21.1588 36.453 21.7363 37 22.25H24.4L26.11 20.95V15.95C25.5043 16.0152 24.9204 16.2132 24.4 16.53L24.25 16.3C24.8041 15.9292 25.445 15.7087 26.11 15.66V15.13H25.84C25.0611 15.1398 24.3146 15.4434 23.75 15.98C23.8579 15.4447 24.1569 14.9669 24.5911 14.6357C25.0253 14.3045 25.5652 14.1425 26.11 14.18V9.38L24.4 8H36.39ZM38.27 22.32L37.69 23.32H25.42L25.24 23.06H37.54L37.92 22.36C36.9328 21.4789 36.154 20.3893 35.64 19.17L36 19.3C36.5059 20.3849 37.2154 21.3626 38.09 22.18L38.27 22.32ZM33.62 12.52V17.52L33.34 17.37V12.37L33.62 12.52ZM36.92 8.78L36.85 8.88C36.0914 9.81812 35.4687 10.8583 35 11.97L34.8 11.74C35.3121 10.5873 35.9855 9.51319 36.8 8.55L36.92 8.78Z"/>
<path d="M66.5699 1.59H74.2999L71.9999 3.77V13.77L72.9099 12.77V3.97L74.7599 2.17L75.0099 2.53L73.3099 4.18V12.2L78.4299 6.09C79.0633 5.44836 79.4554 4.60757 79.5399 3.71C79.5272 3.47649 79.4643 3.24847 79.3556 3.04141C79.2469 2.83436 79.0949 2.65312 78.9099 2.51C78.481 2.12624 77.9555 1.86691 77.3899 1.76V1.59H86.0899V1.76C84.1899 2.22 82.0899 3.76 79.9299 6.42L77.6399 9.14L83.7299 21L86.5099 22.8H77.9299L80.0999 21.19L75.9999 13L73.3099 16.29V21L75.9999 24.14H67.5299L67.0799 23.69H74.9999L72.8999 21.17V16.05L75.7799 12.51L75.4099 11.78L71.9999 15.85V21L73.9999 22.8H66.4399L68.6999 20.87V3.56L66.5699 1.59ZM86.9199 3.1C85.2899 3.21 83.6599 4.16 82.0499 5.95L79.1599 9.16L84.9999 21L89.6699 24.16H79.1599L78.6899 23.71H88.2599L84.7399 21.3L78.7399 9.16L81.8199 5.69C83.0515 4.10916 84.8397 3.05768 86.8199 2.75L86.9199 3.1Z" />
<path d="M91.13 10.16C92.8666 9.14039 94.8462 8.60836 96.86 8.61998C98.2371 8.55478 99.6023 8.90304 100.78 9.61998C101.245 9.88585 101.632 10.2682 101.904 10.7294C102.176 11.1906 102.322 11.7147 102.33 12.25C102.331 12.6831 102.243 13.1117 102.071 13.5092C101.899 13.9067 101.647 14.2644 101.33 14.56C100.551 15.2828 99.5899 15.7805 98.55 16C99.0897 17.4638 99.7977 18.8598 100.66 20.16C101.385 21.325 102.285 22.3708 103.33 23.26L103.16 23.31C101.999 23.7312 100.897 24.2992 99.88 25L99.71 25.11L99.65 24.75C99.2771 22.2261 98.6057 19.7555 97.65 17.39V17.27C96.984 17.5506 96.2851 17.7455 95.57 17.85H95.48V22L97.48 24.11H91.6L91.42 23.81H96.77L95.14 22.08V17.58H95.37C96.1119 17.4965 96.8368 17.3009 97.52 17C97.4901 16.9449 97.4634 16.8881 97.44 16.83L97.33 16.51L97.27 16.37C96.4046 16.5775 95.5258 16.7246 94.64 16.81H94.52V21.81L95.8 23.15H90.8L92.26 21.81V18.11H92.17C91.7713 18.1958 91.3774 18.3026 90.99 18.43H90.9L90.8 18.2C91.0512 18.1007 91.3084 18.0173 91.57 17.95L92.17 17.8H92.26V17.21C91.6993 17.2303 91.144 17.3279 90.61 17.5H90.48C90.5407 17.2519 90.6175 17.0081 90.71 16.77L90.86 16.26V16.16C91.19 16.16 91.46 16.16 91.64 16.16C91.8296 16.1759 92.0203 16.1759 92.21 16.16V10.72C91.8699 10.5116 91.5118 10.3342 91.14 10.19L91.13 10.16ZM94.52 9.85998V15.92C94.7281 15.9208 94.9358 15.9007 95.14 15.86V10.34C95.6229 10.2143 96.1211 10.1571 96.62 10.17C97.2053 10.0987 97.7988 10.1965 98.3304 10.4516C98.862 10.7068 99.3094 11.1087 99.62 11.61C99.1796 11.2327 98.6881 10.9196 98.16 10.68C97.6774 10.5002 97.1647 10.4153 96.65 10.43C96.2461 10.4225 95.8429 10.4662 95.45 10.56V15.86H95.57C96.7543 15.7069 97.8836 15.2676 98.86 14.58C99.2024 14.313 99.4776 13.9695 99.6634 13.5771C99.8492 13.1846 99.9405 12.7541 99.93 12.32C99.9331 11.9228 99.8445 11.5303 99.671 11.173C99.4976 10.8156 99.244 10.5032 98.93 10.26C98.2405 9.70541 97.3742 9.41785 96.49 9.44998C95.8096 9.42296 95.1331 9.56377 94.52 9.85998ZM99.94 16.6C100.478 18.2571 101.33 19.7951 102.45 21.13C103.259 22.1021 104.218 22.9392 105.29 23.61C103.586 24.0642 101.958 24.7685 100.46 25.7L100.36 25.77L100.14 25.59C101.544 24.6613 103.086 23.9625 104.71 23.52C102.339 21.8036 100.56 19.3923 99.62 16.62L99.55 16.43C101.84 15.57 102.99 14.24 102.99 12.43C102.94 11.5589 102.63 10.7229 102.1 10.03C102.47 10.3565 102.764 10.7604 102.961 11.2132C103.158 11.6659 103.253 12.1564 103.24 12.65C103.24 14.39 102.14 15.7066 99.94 16.6Z"/>
<path d="M112.52 8.65998C113.36 8.63283 114.195 8.80645 114.955 9.16645C115.715 9.52644 116.378 10.0624 116.89 10.73C118.047 12.3303 118.622 14.278 118.52 16.25C118.612 18.125 118.042 19.9728 116.91 21.47C116.385 22.104 115.722 22.6088 114.971 22.9452C114.22 23.2816 113.402 23.4406 112.58 23.41C111.179 23.4091 109.825 22.9092 108.76 22C107.916 21.2565 107.255 20.3284 106.828 19.2877C106.401 18.247 106.221 17.1219 106.3 16C106.21 14.0739 106.813 12.1793 108 10.66C108.551 10.0042 109.245 9.48303 110.028 9.1364C110.812 8.78976 111.664 8.62681 112.52 8.65998ZM112.52 9.65998C109.987 9.65998 108.723 11.8833 108.73 16.33C108.73 20.44 109.97 22.49 112.47 22.49C113.021 22.5005 113.564 22.3525 114.034 22.0636C114.504 21.7746 114.881 21.3569 115.12 20.86C115.808 19.3645 116.12 17.7236 116.03 16.08C116.03 13.71 115.74 12.08 115.15 11.08C114.884 10.6227 114.499 10.2463 114.036 9.99094C113.572 9.73556 113.048 9.6108 112.52 9.62998V9.65998ZM116.11 9.26998C117.231 9.83821 118.124 10.7735 118.64 11.92C119.29 13.2689 119.613 14.7527 119.58 16.25C119.677 18.353 119.025 20.4222 117.74 22.09C117.164 22.8084 116.428 23.3829 115.592 23.7682C114.755 24.1534 113.84 24.3389 112.92 24.31C111.615 24.2965 110.354 23.8339 109.35 23V22.95C110.374 23.6528 111.599 24.0037 112.84 23.95C113.722 23.9699 114.597 23.7894 115.399 23.4222C116.201 23.055 116.909 22.5106 117.47 21.83C118.709 20.2983 119.348 18.3684 119.27 16.4C119.303 14.9248 119.024 13.4593 118.45 12.1C117.976 10.9616 117.158 10.0001 116.11 9.34998V9.26998ZM114.93 11.34L114.74 11.23C114.135 10.8647 113.446 10.6614 112.74 10.64C110.74 10.64 109.74 12.5733 109.74 16.44C109.74 19.2733 110.35 21.15 111.57 22.07L111.47 22.18C110.731 21.6677 110.172 20.9368 109.87 20.09C109.511 18.9559 109.349 17.7688 109.39 16.58C109.39 12.42 110.483 10.34 112.67 10.34C113.098 10.2942 113.531 10.3593 113.927 10.5292C114.323 10.6991 114.668 10.968 114.93 11.31V11.34Z" />
<path d="M134.4 8.80999C133.767 9.07735 133.203 9.48414 132.75 9.99999C132.327 10.7874 132.133 11.6778 132.19 12.57V23.22H130.29L125 12.93V19.53L125.13 21.15C125.176 21.48 125.288 21.7973 125.46 22.0826C125.631 22.368 125.86 22.6154 126.13 22.81L126.22 22.89C125.22 22.55 124.67 21.44 124.67 19.58V12.38L124.06 11.2V17.67C123.979 19.0167 124.118 20.3676 124.47 21.67C124.659 22.0294 124.928 22.3412 125.255 22.5819C125.583 22.8226 125.96 22.9861 126.36 23.06L127.36 24.06H121.27L121.09 23.76H126.72L126.14 23.14H120.9C121.651 22.9381 122.299 22.464 122.72 21.81C123.084 20.9063 123.238 19.9318 123.17 18.96V9.95999L121.68 8.70999H127.36L125.77 9.77999L131.2 20.38V19.13L126.54 10.06L128.11 8.99999L128.33 9.20999L126.93 10.16L131.2 18.53V12.68C131.259 11.7976 131.15 10.912 130.88 10.07C130.503 9.49035 129.949 9.0483 129.3 8.80999H134.4ZM134.8 9.63999L134.59 9.97999C134.354 10.015 134.128 10.0989 133.927 10.2263C133.725 10.3537 133.553 10.5219 133.42 10.72C133.173 11.3003 133.067 11.9308 133.11 12.56V24.14H130.7L130.55 23.84H132.81V12.67C132.744 11.913 132.885 11.1523 133.22 10.47C133.411 10.2294 133.65 10.0313 133.922 9.8884C134.194 9.74549 134.493 9.66089 134.8 9.63999Z" />
</svg>
