<svg width="84" height="10" viewBox="0 0 84 10" fill="none" xmlns="http://www.w3.org/2000/svg">
<path d="M4.49651 7.22534L4.09618 1.72362C4.01674 2.60105 3.85382 3.46877 3.60968 4.3148C3.43619 4.97246 3.16434 5.59967 2.80347 6.17486C2.5677 6.54744 2.25238 6.8623 1.8805 7.09648C1.59842 7.26968 1.27658 7.3662 0.946411 7.37661C0.79357 7.38189 0.643211 7.33664 0.518286 7.24775C0.472239 7.21719 0.434425 7.17561 0.408228 7.12673C0.38203 7.07784 0.368265 7.02318 0.368164 6.96762C0.368107 6.92199 0.377754 6.87688 0.396456 6.83532C0.415159 6.79377 0.442482 6.75673 0.476585 6.72671C0.553101 6.6586 0.652549 6.62253 0.754588 6.62586C0.872916 6.63079 0.990365 6.64863 1.10487 6.67909C1.21739 6.71 1.33305 6.72785 1.44959 6.73231C1.62895 6.72541 1.80179 6.66279 1.94444 6.55303C2.27132 6.29894 2.53656 5.97324 2.72007 5.6006C3.02756 4.99461 3.25737 4.3517 3.40395 3.68732C3.59882 2.90059 3.72533 2.09826 3.78204 1.28942C3.10977 1.25907 2.44778 1.46394 1.9083 1.86928C1.7429 1.98551 1.60657 2.13889 1.51008 2.3173C1.41358 2.49572 1.35957 2.6943 1.35229 2.89736C1.37807 3.12307 1.47559 3.33434 1.6303 3.49963C1.70907 3.58473 1.7596 3.69242 1.77486 3.80777C1.77622 3.84797 1.76953 3.88803 1.7552 3.92557C1.74087 3.96311 1.7192 3.99735 1.69146 4.02627C1.66594 4.05325 1.63534 4.07482 1.60145 4.08973C1.56756 4.10465 1.53106 4.11259 1.49408 4.11311C1.42169 4.10848 1.35163 4.08552 1.2904 4.04634C1.22917 4.00717 1.17874 3.95305 1.14379 3.88901C1.00435 3.6777 0.93255 3.42839 0.938071 3.17468C0.943266 2.76844 1.07992 2.37501 1.32728 2.05417C1.60131 1.68635 1.97347 1.40461 2.40036 1.2418C2.91467 1.04731 3.46075 0.952275 4.01 0.961667C4.27898 0.969575 4.54769 0.938442 4.80787 0.869224C4.80787 1.17456 4.79119 1.33984 4.80787 1.36505C4.80317 1.435 4.80317 1.5052 4.80787 1.57515L5.09977 5.46613C5.78312 4.21452 6.57578 3.02675 7.46836 1.91691C7.87305 1.39329 8.36276 0.942457 8.91675 0.583496C8.68045 1.23059 8.43024 2.08218 8.16058 3.14387L7.53786 5.59499C7.5045 5.73226 7.46002 5.93114 7.40163 6.19166L7.27931 6.75192C7.50949 6.80933 7.74554 6.83941 7.98266 6.84156C8.16946 6.84044 8.3557 6.82073 8.53867 6.78273L8.47473 7.07687C8.34277 7.10357 8.2089 7.11949 8.0744 7.12449C7.87354 7.11938 7.67309 7.10348 7.47391 7.07687C7.28946 7.05326 7.10383 7.04017 6.91791 7.03765C6.714 7.04231 6.5118 7.07627 6.31742 7.1385C6.55183 6.49161 6.74771 5.8312 6.90401 5.16079L7.29321 3.59768C7.39508 3.11844 7.54024 2.64961 7.7269 2.19703C7.27915 2.74447 6.85974 3.31483 6.47033 3.90582C6.0144 4.57439 5.50565 5.42038 4.94409 6.44378L4.49651 7.22534Z" fill="black"/>
<path d="M12.7504 2.84134H13.4704L12.995 4.62575C12.8173 5.20614 12.6771 5.79752 12.5753 6.39617C12.5708 6.44956 12.5867 6.50267 12.6197 6.54463C12.6317 6.56086 12.6472 6.5741 12.665 6.58333C12.6828 6.59256 12.7026 6.59753 12.7226 6.59786C12.7952 6.59071 12.8644 6.56358 12.9228 6.51942C13.1488 6.33909 13.3607 6.14148 13.5566 5.92835L13.7262 6.11604C13.0442 6.82756 12.5438 7.18333 12.225 7.18333C12.1726 7.18361 12.1208 7.17278 12.0729 7.15154C12.025 7.1303 11.9821 7.09914 11.947 7.06007C11.8659 6.96017 11.8252 6.83312 11.833 6.7043C11.842 6.46353 11.8793 6.22468 11.9442 5.99278C11.6246 6.35617 11.2492 6.66545 10.8322 6.9088C10.604 7.06079 10.3406 7.15055 10.0677 7.16932C10.0156 7.17141 9.96373 7.16196 9.91569 7.14163C9.86766 7.1213 9.82464 7.09059 9.78967 7.05167C9.71293 6.94258 9.67743 6.80944 9.68959 6.67629C9.69038 6.5323 9.70528 6.38874 9.73407 6.2477C9.77855 6.032 9.88975 5.6006 10.0705 4.9535C10.2236 4.47068 10.337 3.97599 10.4096 3.47442C10.4096 3.37918 10.3763 3.33156 10.3068 3.33156C10.2177 3.34186 10.1326 3.37461 10.0593 3.4268C9.86686 3.56197 9.68725 3.71483 9.52279 3.88341L9.29761 3.70413C9.61438 3.40031 9.96193 3.13084 10.3346 2.90016C10.509 2.79231 10.7061 2.72708 10.91 2.70968C10.948 2.70813 10.9858 2.71542 11.0205 2.73096C11.0552 2.74651 11.0859 2.7699 11.1102 2.79932C11.1674 2.88075 11.194 2.98005 11.1852 3.07945C11.1101 3.66685 10.9826 4.24625 10.8044 4.81064C10.6666 5.27579 10.558 5.74921 10.4791 6.22809C10.4784 6.29582 10.5021 6.3615 10.5458 6.41297C10.5642 6.4355 10.587 6.45389 10.6129 6.46692C10.6388 6.47995 10.6671 6.48734 10.696 6.48861C10.885 6.48861 11.1547 6.33173 11.5022 6.01799C11.8306 5.73727 12.0711 5.3665 12.1944 4.9507L12.7504 2.84134Z" fill="black"/>
<path d="M18.7635 7.64555C19.0721 7.70825 19.3856 7.74387 19.7004 7.752C19.8384 7.75892 19.975 7.72059 20.0896 7.64275C20.1349 7.61169 20.1721 7.56993 20.1978 7.52111C20.2234 7.47229 20.2369 7.41788 20.2369 7.36262C20.2354 7.30637 20.2308 7.25026 20.223 7.19454C20.2085 7.12446 20.2001 7.05321 20.198 6.98164C20.2041 6.83817 20.2381 6.69731 20.2981 6.56706V6.55025C19.895 6.97604 19.5558 7.18894 19.275 7.18894C19.2227 7.18923 19.1709 7.17839 19.123 7.15716C19.0751 7.13592 19.0322 7.10475 18.997 7.06568C18.9159 6.96578 18.8752 6.83874 18.883 6.70992C18.892 6.46914 18.9293 6.2303 18.9942 5.9984C18.6747 6.36178 18.2992 6.67106 17.8822 6.91441C17.654 7.0664 17.3906 7.15616 17.1177 7.17493C17.0657 7.17703 17.0138 7.16757 16.9657 7.14724C16.9177 7.12691 16.8747 7.0962 16.8397 7.05728C16.763 6.9482 16.7275 6.81505 16.7396 6.68191C16.7404 6.53791 16.7553 6.39435 16.7841 6.25331C16.8286 6.03761 16.9398 5.60621 17.1205 4.95912C17.2736 4.47629 17.387 3.9816 17.4597 3.48004C17.4597 3.3848 17.4263 3.33718 17.3568 3.33718C17.2676 3.34711 17.1824 3.3799 17.1094 3.43242C16.9169 3.56758 16.7373 3.72044 16.5728 3.88903L16.3477 3.70975C16.6644 3.40592 17.012 3.13645 17.3846 2.90578C17.5591 2.79793 17.7561 2.73269 17.9601 2.71529C17.998 2.71375 18.0358 2.72103 18.0705 2.73657C18.1052 2.75212 18.1359 2.77551 18.1602 2.80493C18.2175 2.88636 18.2441 2.98566 18.2353 3.08506C18.1657 3.67289 18.0438 4.25322 17.8711 4.81905C17.7333 5.28421 17.6247 5.75762 17.5458 6.2365C17.5452 6.30423 17.5689 6.36991 17.6126 6.42139C17.6309 6.44392 17.6538 6.4623 17.6796 6.47534C17.7055 6.48837 17.7338 6.49576 17.7627 6.49702C17.9517 6.49702 18.2214 6.34015 18.5689 6.02641C18.8956 5.74229 19.1332 5.36854 19.2528 4.95071L19.8088 2.84975H20.5344L20.059 4.63417C19.8813 5.21455 19.7411 5.80593 19.6392 6.40458C19.6392 6.53904 19.6865 6.60627 19.7838 6.60627C19.8811 6.60627 20.1869 6.38217 20.6178 5.93677L20.7874 6.12445C20.6871 6.20743 20.6056 6.31115 20.5486 6.42859C20.4915 6.54603 20.4601 6.67445 20.4565 6.80516C20.4614 6.90671 20.4782 7.00733 20.5066 7.1049C20.5384 7.20762 20.557 7.31398 20.5622 7.42145C20.5594 7.53874 20.5284 7.65359 20.4717 7.75608C20.415 7.85858 20.3344 7.94563 20.2369 8.00972C19.9622 8.1941 19.635 8.28266 19.3056 8.26183C18.9303 8.26183 18.58 8.24502 18.252 8.21421C17.9879 8.18619 17.8266 8.17499 17.7683 8.17499C17.5625 8.17499 17.4597 8.25903 17.4597 8.42991C17.4572 8.45444 17.4601 8.47922 17.468 8.50254C17.476 8.52586 17.4889 8.54717 17.5058 8.565C17.5227 8.58283 17.5432 8.59676 17.566 8.60584C17.5887 8.61492 17.6132 8.61893 17.6376 8.61759C17.7933 8.6344 17.8711 8.70443 17.8711 8.82769C17.8705 8.85745 17.8637 8.88675 17.8513 8.91375C17.8388 8.94074 17.821 8.96485 17.7988 8.98456C17.7542 9.02822 17.6942 9.05238 17.632 9.05179C17.5662 9.04953 17.5019 9.0319 17.444 9.00031C17.3861 8.96871 17.3363 8.92401 17.2984 8.86971C17.1938 8.74363 17.1393 8.58293 17.1455 8.4187C17.1434 8.29854 17.1707 8.17969 17.225 8.07269C17.2793 7.96568 17.3589 7.87382 17.4569 7.80522C17.651 7.65343 17.8895 7.57069 18.1352 7.56992C18.3464 7.5767 18.5566 7.602 18.7635 7.64555Z" fill="black"/>
<path d="M21.3157 3.8946L21.0933 3.72093C21.3581 3.40748 21.6694 3.13723 22.0162 2.91976C22.2304 2.78252 22.4748 2.70072 22.7279 2.68165C22.8163 2.67573 22.904 2.70153 22.9753 2.75448C23.0037 2.77767 23.0263 2.80723 23.0412 2.8408C23.0562 2.87437 23.0632 2.91101 23.0615 2.94777C22.9815 3.37425 22.8719 3.79454 22.7335 4.20555C22.3758 5.4157 22.1969 6.14497 22.1969 6.39335C22.1965 6.43628 22.2091 6.47832 22.2331 6.51381C22.2414 6.52675 22.2524 6.53772 22.2654 6.54594C22.2784 6.55416 22.2929 6.55945 22.3081 6.56143C22.4166 6.56143 22.6946 6.34853 23.1421 5.92834L23.3395 6.12162C23.0298 6.43504 22.6899 6.71656 22.3248 6.96201C22.1685 7.06632 21.9889 7.12985 21.8022 7.14689C21.7504 7.14896 21.6987 7.13978 21.6508 7.11996C21.6028 7.10014 21.5596 7.07016 21.5242 7.03204C21.4496 6.9465 21.4116 6.83474 21.4185 6.7211C21.4185 6.29531 21.6724 5.25509 22.1803 3.60047C22.203 3.53275 22.2152 3.46187 22.2164 3.39037C22.2164 3.32314 22.1858 3.28953 22.1247 3.28953C22.0416 3.29391 21.9616 3.32209 21.8939 3.37076C21.6878 3.52981 21.4945 3.70496 21.3157 3.8946V3.8946ZM23.3145 0.510652C23.3625 0.509745 23.4102 0.518718 23.4547 0.537021C23.4991 0.555324 23.5394 0.582574 23.573 0.617102C23.6065 0.652511 23.6325 0.694289 23.6497 0.739988C23.6669 0.785686 23.6749 0.834385 23.6731 0.883223C23.6762 1.03095 23.6213 1.17392 23.5202 1.28101C23.4775 1.33257 23.4245 1.37445 23.3646 1.40389C23.3047 1.43334 23.2393 1.4497 23.1727 1.45188C23.1251 1.45291 23.0778 1.44398 23.0338 1.42566C22.9898 1.40733 22.95 1.38002 22.917 1.34544C22.8489 1.26864 22.813 1.16822 22.8169 1.06531C22.8145 0.921255 22.8673 0.781806 22.9642 0.675931C23.0069 0.624045 23.0604 0.582318 23.121 0.553743C23.1815 0.525167 23.2476 0.51045 23.3145 0.510652V0.510652Z" fill="black"/>
<path d="M28.0404 6.11323C27.3658 6.82663 26.8663 7.18333 26.5419 7.18333C26.4894 7.18308 26.4376 7.17173 26.3897 7.15002C26.3418 7.12831 26.2989 7.09671 26.2639 7.05727C26.2207 7.00933 26.1873 6.95317 26.1658 6.89208C26.1443 6.831 26.1352 6.76621 26.1388 6.70151C26.1478 6.47328 26.1823 6.2468 26.2417 6.02639L26.4808 5.01233H25.0713L24.6015 7.00404H23.8703C23.8703 6.96483 23.9065 6.82756 23.9788 6.59226C24.026 6.42138 24.115 6.06841 24.2568 5.53617L24.7099 3.70974C24.7296 3.6365 24.7417 3.56139 24.746 3.48563C24.746 3.38198 24.7099 3.33156 24.6376 3.33156C24.4903 3.33156 24.229 3.51645 23.8564 3.89182L23.634 3.71814C24.3457 3.05143 24.8823 2.71808 25.2437 2.71808C25.4299 2.71808 25.5217 2.84134 25.5217 3.09065C25.4621 3.63987 25.3504 4.18207 25.1881 4.70979H26.6003L27.0924 2.84974H27.8124L27.337 4.63136C27.1589 5.21181 27.0177 5.80316 26.9145 6.40177C26.9145 6.53343 26.9645 6.60066 27.0618 6.60066C27.1591 6.60066 27.4621 6.37656 27.8958 5.93115L28.0404 6.11323Z" fill="black"/>
<path d="M28.4046 3.75173L28.2406 3.51082L28.6159 3.2559C28.8633 3.07747 29.1214 2.91468 29.3888 2.76848C29.4606 2.73232 29.5393 2.71225 29.6195 2.70965C29.6603 2.71232 29.7 2.72462 29.7352 2.74554C29.7704 2.76646 29.8003 2.79542 29.8224 2.83011C30.1612 3.29076 30.4154 3.80875 30.573 4.35961C30.7701 4.96182 30.8733 5.59119 30.8789 6.22527C30.8789 6.3037 30.8789 6.42416 30.8789 6.58383C31.4515 5.52495 31.7369 4.68456 31.7351 4.06268C31.7282 3.88787 31.6993 3.71467 31.6489 3.54724C31.6019 3.38085 31.5721 3.20999 31.56 3.0374C31.5583 2.99224 31.5656 2.9472 31.5813 2.90489C31.5971 2.86257 31.621 2.82383 31.6517 2.79089C31.6823 2.75905 31.719 2.73391 31.7597 2.71705C31.8004 2.70018 31.844 2.69194 31.888 2.69285C31.9416 2.69294 31.9946 2.70535 32.0427 2.72914C32.0909 2.75292 32.1331 2.78745 32.166 2.83011C32.2452 2.94574 32.2834 3.08489 32.2744 3.22509C32.2547 3.78391 32.1545 4.33687 31.977 4.86664C31.7407 5.60431 31.4247 6.31357 31.0345 6.98161C30.7134 7.58754 30.3204 8.15193 29.8641 8.66238C29.571 8.98185 29.2248 9.24729 28.8411 9.44674C28.5505 9.5961 28.2303 9.67749 27.9042 9.68485C27.7279 9.69671 27.5523 9.65369 27.401 9.5616C27.3504 9.52966 27.3084 9.48556 27.2788 9.43325C27.2492 9.38094 27.2329 9.32205 27.2315 9.26186C27.2311 9.2107 27.2428 9.16019 27.2655 9.11443C27.2882 9.06868 27.3213 9.02896 27.3621 8.99854C27.4648 8.92203 27.5904 8.88345 27.718 8.88929C27.8763 8.8954 28.0336 8.91698 28.1878 8.95371C28.3309 8.9908 28.4769 9.01518 28.6242 9.02655C28.8642 9.01314 29.0934 8.92173 29.2776 8.76603C29.583 8.5423 29.8378 8.25588 30.0254 7.92564C30.2036 7.62267 30.2995 7.27775 30.3034 6.92559C30.2912 6.35145 30.2223 5.77997 30.0977 5.21961C30.0093 4.67787 29.8115 4.16017 29.5166 3.69851C29.4785 3.62179 29.4219 3.55593 29.3519 3.50699C29.282 3.45805 29.201 3.42758 29.1163 3.41838C28.8522 3.45831 28.6052 3.57404 28.4046 3.75173Z" fill="black"/>
<path d="M34.8071 4.70698L34.7209 5.01232H33.4254C33.3931 5.21441 33.3736 5.41839 33.3671 5.62299C33.3586 5.86296 33.4082 6.1014 33.5116 6.31772C33.5487 6.40211 33.6095 6.47367 33.6867 6.52347C33.7638 6.57328 33.8537 6.59915 33.9453 6.59784C34.3345 6.59784 34.8043 6.36254 35.3548 5.89752L35.4632 6.19446C34.6653 6.82755 33.9842 7.14409 33.4254 7.14409C33.2992 7.15341 33.1729 7.12812 33.0598 7.07091C32.9468 7.01369 32.8512 6.92669 32.7832 6.81914C32.6433 6.57934 32.5739 6.30441 32.5831 6.02638C32.6042 5.23593 32.862 4.47038 33.3226 3.83017C33.8193 3.08316 34.4151 2.70966 35.1101 2.70966C35.3049 2.69837 35.4986 2.74619 35.6661 2.84692C35.7268 2.88349 35.777 2.93517 35.8121 2.99699C35.8472 3.05881 35.8658 3.12868 35.8663 3.19988C35.8663 3.43799 35.7384 3.55565 35.4827 3.55565C35.3203 3.54152 35.1642 3.48557 35.0295 3.39317C34.885 3.29377 34.7174 3.23392 34.543 3.2195C34.0676 3.2195 33.709 3.71532 33.4727 4.70698H34.8071Z" fill="black"/>
<path d="M37.0533 3.8834L36.8309 3.70412C37.5445 3.03928 38.0875 2.7078 38.46 2.70966C38.6352 2.70966 38.738 2.81611 38.7575 3.03461L39.105 6.21407L41.2123 2.85253H41.9406L41.4597 4.63414C41.2833 5.2147 41.144 5.80605 41.0427 6.40456C41.0427 6.53622 41.0927 6.60345 41.19 6.60345C41.2873 6.60345 41.5903 6.38215 42.024 5.93954L42.1908 6.12723C41.5144 6.83876 41.014 7.19452 40.6896 7.19452C40.5889 7.19028 40.4939 7.14596 40.4255 7.07127C40.3811 7.02401 40.3468 6.96803 40.3248 6.90682C40.3028 6.8456 40.2935 6.78047 40.2976 6.7155C40.3643 6.13732 40.4825 5.56636 40.6507 5.00952L40.9593 3.81897L38.8826 7.13289H38.499L38.1709 4.16913C37.6983 5.54923 37.3137 6.38962 37.0172 6.69029C36.8918 6.82911 36.7395 6.9407 36.5699 7.01825C36.4002 7.09579 36.2166 7.13767 36.0303 7.1413C35.9559 7.14717 35.881 7.13724 35.8106 7.11215C35.7402 7.08705 35.6758 7.04736 35.6216 6.99563C35.5363 6.90935 35.4867 6.79354 35.4831 6.67176C35.4795 6.54998 35.5221 6.4314 35.6022 6.34013C35.6399 6.29571 35.6868 6.26015 35.7397 6.23595C35.7925 6.21175 35.8499 6.19951 35.908 6.20007C36.0113 6.20587 36.1125 6.23254 36.2054 6.2785C36.294 6.31701 36.3876 6.34248 36.4834 6.35413C36.5749 6.34422 36.6629 6.31395 36.7413 6.2655C36.8197 6.21705 36.8864 6.15164 36.9366 6.074C37.213 5.65172 37.4379 5.19745 37.6066 4.72098C37.8034 4.30381 37.9509 3.86472 38.0458 3.41278C38.0481 3.39569 38.0465 3.37829 38.041 3.36194C38.0355 3.34559 38.0264 3.33074 38.0142 3.31854C38.0021 3.30634 37.9874 3.29712 37.9712 3.2916C37.9549 3.28608 37.9377 3.28442 37.9207 3.28673C37.74 3.29233 37.4425 3.48842 37.0533 3.8834Z" fill="black"/>
<path d="M45.0765 2.70966C45.2366 2.70594 45.3954 2.73997 45.5402 2.80903C45.685 2.87809 45.8118 2.98027 45.9105 3.10744C46.1503 3.42902 46.2676 3.82659 46.2413 4.22795C46.2422 4.98248 45.959 5.70926 45.449 6.26168C44.9226 6.86489 44.3666 7.16556 43.781 7.1637C43.6187 7.17085 43.4567 7.14278 43.3061 7.08141C43.1555 7.02003 43.0198 6.92677 42.908 6.80794C42.6741 6.53862 42.5543 6.18761 42.5744 5.83029C42.5722 5.123 42.7846 4.43195 43.1833 3.84978C43.6809 3.08503 44.3147 2.70966 45.0765 2.70966ZM44.6456 3.09063C44.3601 3.09063 44.0821 3.29793 43.8116 3.71252C43.5157 4.23275 43.3757 4.8282 43.4084 5.4269C43.3897 5.7928 43.4755 6.15643 43.6559 6.47458C43.7051 6.5605 43.7761 6.6317 43.8615 6.68091C43.947 6.73013 44.0439 6.7556 44.1424 6.75471C44.306 6.74011 44.4632 6.68353 44.599 6.59036C44.7347 6.49719 44.8446 6.37053 44.918 6.22246C45.231 5.70871 45.3867 5.11335 45.3656 4.51088C45.3933 4.13483 45.3224 3.75805 45.1599 3.41838C45.1111 3.32235 45.0377 3.24127 44.9472 3.18362C44.8567 3.12596 44.7526 3.09385 44.6456 3.09063V3.09063Z" fill="black"/>
<path d="M51.3704 2.11018L51.4288 1.86087C51.8498 1.8278 52.2673 1.7594 52.677 1.65638C52.5603 2.00654 52.4741 2.28947 52.4213 2.49676L52.1433 3.63688C52.3869 3.65508 52.6316 3.6246 52.8635 3.5472C53.0953 3.46981 53.3097 3.34701 53.4944 3.18587C53.6394 3.04717 53.7546 2.87981 53.8325 2.69424C53.9105 2.50867 53.9497 2.30889 53.9475 2.10738C53.9526 1.9727 53.9254 1.83876 53.8683 1.71688C53.8112 1.59499 53.7259 1.48873 53.6195 1.40706C53.3335 1.20965 52.9895 1.11582 52.6437 1.14094C52.0339 1.14134 51.4335 1.29234 50.895 1.58074C50.3728 1.84559 49.9267 2.24104 49.5995 2.72927C49.3087 3.14597 49.1472 3.64024 49.1353 4.14952C49.1339 4.27202 49.1517 4.39398 49.1881 4.51088C49.2231 4.61969 49.2757 4.72192 49.3438 4.81342C49.4245 4.90283 49.5182 4.97935 49.6218 5.04033C49.7245 5.10809 49.8179 5.18907 49.8998 5.28123C49.9383 5.33594 49.9578 5.40191 49.9554 5.46892C49.9559 5.50392 49.9493 5.53864 49.9359 5.57093C49.9225 5.60322 49.9026 5.63238 49.8776 5.65661C49.853 5.68194 49.8236 5.70197 49.7911 5.71545C49.7586 5.72894 49.7237 5.73561 49.6885 5.73504C49.4939 5.73504 49.2993 5.59498 49.1019 5.30925C48.8961 5.00014 48.792 4.6336 48.8045 4.26157C48.8105 3.66855 48.9883 3.09023 49.316 2.59761C49.6719 2.04332 50.1706 1.59694 50.7588 1.30621C51.3932 0.978133 52.0974 0.810827 52.8105 0.81879C53.3007 0.785687 53.7884 0.913451 54.2005 1.18296C54.3452 1.28044 54.4641 1.412 54.547 1.56625C54.6298 1.7205 54.674 1.89279 54.6759 2.06816C54.6755 2.39695 54.5626 2.71553 54.3562 2.97017C54.0998 3.26945 53.7628 3.48741 53.386 3.59766C53.6355 3.62731 53.876 3.70938 54.0921 3.83857C54.2586 3.9462 54.3954 4.09462 54.4896 4.26997C54.5857 4.45368 54.6335 4.65907 54.6286 4.86664C54.6284 5.23977 54.516 5.60407 54.3061 5.91152C54.0668 6.26323 53.7399 6.54533 53.3582 6.7295C52.9559 6.94209 52.5086 7.05356 52.0543 7.05445C51.9209 7.05445 51.6401 7.05445 51.2064 7.01243C51.0007 7.01243 50.7838 6.99562 50.5587 6.99562C50.2508 6.99214 49.9434 7.0203 49.6413 7.07966L49.7163 6.79953C49.9914 6.80899 50.2608 6.71852 50.4753 6.54461C50.6907 6.24748 50.8353 5.90431 50.8978 5.54175L51.6484 2.57239C51.6734 2.48094 51.6883 2.387 51.6929 2.29226C51.693 2.26644 51.6873 2.24093 51.6763 2.21764C51.6652 2.19435 51.649 2.17389 51.629 2.1578C51.5859 2.11796 51.529 2.09683 51.4705 2.09898C51.4369 2.09933 51.4033 2.10308 51.3704 2.11018V2.11018ZM52.0654 3.95343L51.8069 4.9815C51.7112 5.39935 51.5848 5.80947 51.4288 6.20846C51.363 6.36899 51.2688 6.51611 51.1508 6.64266C51.4077 6.71146 51.6718 6.74908 51.9376 6.75471C52.1886 6.77091 52.4399 6.72881 52.6722 6.63168C52.9045 6.53455 53.1116 6.38496 53.2775 6.19445C53.5709 5.85194 53.7318 5.4143 53.7307 4.96189C53.7364 4.7554 53.677 4.55241 53.5611 4.38202C53.4534 4.2226 53.2974 4.10267 53.1163 4.04027C52.7718 3.96189 52.418 3.93266 52.0654 3.95343V3.95343Z" fill="black"/>
<path d="M58.6848 2.62282L59.0212 2.54999L58.6403 3.83018C58.4874 4.34561 58.3456 4.95069 58.2094 5.60899C58.1542 5.84103 58.117 6.07705 58.0982 6.31491C58.0982 6.42136 58.1399 6.47178 58.2233 6.47178C58.3169 6.45835 58.4057 6.42178 58.4818 6.36534C58.7007 6.23305 58.9032 6.07507 59.0851 5.89472L59.2491 6.09361C58.8627 6.44938 58.6153 6.65387 58.5096 6.73791C58.3178 6.875 58.1095 6.98702 57.8897 7.07126C57.7697 7.11696 57.6426 7.14068 57.5144 7.1413C57.4436 7.14786 57.3729 7.1268 57.317 7.08247C57.2939 7.05907 57.276 7.03098 57.2645 7.00007C57.253 6.96916 57.2481 6.93613 57.2503 6.90318C57.254 6.83149 57.2681 6.76072 57.292 6.69309L57.4949 5.99837C57.1984 6.35386 56.8474 6.65932 56.4552 6.90318C56.2547 7.04476 56.0186 7.12633 55.7741 7.13849C55.6877 7.14308 55.6015 7.12634 55.5231 7.08972C55.4446 7.05311 55.3761 6.99773 55.3237 6.9284C55.1742 6.7132 55.0999 6.45405 55.1125 6.19166C55.1222 5.77518 55.2168 5.36518 55.3905 4.98711C55.5789 4.54503 55.8381 4.13715 56.1577 3.77976C56.439 3.44807 56.7842 3.1774 57.1725 2.98419C57.505 2.84136 57.8648 2.7744 58.2261 2.7881C58.3367 2.78868 58.4472 2.79617 58.5569 2.81051L58.6848 2.62282ZM58.0648 3.40438C57.9134 3.36951 57.7587 3.35074 57.6034 3.34836C57.3181 3.34247 57.0388 3.43103 56.8083 3.60047C56.5258 3.845 56.3088 4.15708 56.1772 4.50809C55.9889 4.91934 55.8894 5.3662 55.8853 5.81909C55.8712 5.99443 55.912 6.16981 56.0021 6.32052C56.0362 6.36924 56.0817 6.40876 56.1345 6.43563C56.1873 6.46249 56.2459 6.47587 56.3051 6.47459C56.5943 6.44858 56.8628 6.31231 57.0557 6.09361C57.3497 5.79108 57.5539 5.41167 57.6451 4.99831L58.0648 3.40438Z" fill="black"/>
<path d="M63.9724 5.99277C63.6761 6.3424 63.3305 6.64631 62.9466 6.89478C62.7472 7.03618 62.5194 7.1318 62.2794 7.17491C62.2301 7.1725 62.1818 7.16009 62.1374 7.13843C62.0929 7.11677 62.0533 7.0863 62.0208 7.04885C61.9769 7.00184 61.9429 6.9463 61.9209 6.88562C61.8989 6.82494 61.8894 6.76039 61.8929 6.69589C61.9013 6.45506 61.9387 6.21614 62.0042 5.98437C61.7738 6.28559 61.4969 6.54758 61.184 6.76032C60.9481 6.96893 60.6594 7.10759 60.35 7.1609C60.0915 7.1609 59.9608 6.99563 59.9608 6.66788C60.0321 6.08278 60.1587 5.50589 60.3389 4.94509C60.4937 4.46255 60.6081 3.9678 60.6809 3.46601C60.6809 3.37077 60.6475 3.32315 60.578 3.32315C60.4251 3.32315 60.1638 3.50803 59.7912 3.8834L59.5688 3.70412C60.2805 3.03928 60.818 2.7078 61.1813 2.70966C61.3675 2.70966 61.4593 2.83292 61.4593 3.08223C61.3895 3.66819 61.2676 4.24664 61.0951 4.81063C60.9573 5.27578 60.8487 5.74919 60.7698 6.22808C60.7699 6.29617 60.7946 6.36189 60.8393 6.41296C60.8566 6.43534 60.8784 6.45369 60.9034 6.46675C60.9283 6.47981 60.9558 6.48726 60.9839 6.4886C61.156 6.43713 61.3114 6.34045 61.4342 6.20847C61.6273 6.06003 61.8002 5.88674 61.9486 5.69303C62.0993 5.45824 62.2076 5.19837 62.2683 4.92548L62.8243 2.82732H63.5443L63.0689 4.61173C62.8952 5.17706 62.7596 5.75357 62.663 6.33733C62.663 6.45218 62.7158 6.51101 62.8187 6.51101C63.0369 6.46264 63.236 6.35059 63.3914 6.18886C63.5982 6.02512 63.7849 5.83703 63.9474 5.6286C64.0868 5.41198 64.1866 5.17195 64.2421 4.91988L64.7981 2.82171H65.5209L65.0149 4.62574C64.8389 5.20639 64.6996 5.79772 64.5979 6.39615C64.5979 6.53062 64.648 6.59785 64.7453 6.59785C64.8426 6.59785 65.1428 6.37374 65.5793 5.92834L65.7461 6.11603C65.0733 6.83315 64.5766 7.19172 64.256 7.19172C64.206 7.18993 64.1569 7.1781 64.1116 7.15694C64.0662 7.13577 64.0255 7.10569 63.9919 7.06846C63.9485 7.02061 63.915 6.96447 63.8935 6.90336C63.872 6.84225 63.8629 6.77741 63.8668 6.7127C63.875 6.46948 63.9104 6.22797 63.9724 5.99277V5.99277Z" fill="black"/>
<path d="M68.3037 3.8834L68.0813 3.70412C68.7911 3.03928 69.3268 2.7078 69.6882 2.70966C69.8744 2.70966 69.9662 2.83012 69.9662 3.07663C69.9406 3.40579 69.8819 3.73148 69.791 4.04868L69.6075 4.81343C69.5919 4.87009 69.5825 4.92835 69.5797 4.98711C69.5797 5.11597 69.6659 5.1804 69.8411 5.1804C70.1005 5.14421 70.3434 5.03109 70.5388 4.85545C70.797 4.67724 71.0087 4.43893 71.156 4.16073C71.3287 3.73544 71.4573 3.29328 71.5397 2.84132H72.2597L71.7843 4.62294C71.6061 5.2034 71.465 5.79474 71.3617 6.39335C71.3617 6.52501 71.4118 6.59224 71.5091 6.59224C71.6064 6.59224 71.9094 6.37094 72.3431 5.92834L72.5099 6.11603C71.8353 6.82755 71.3349 7.18331 71.0087 7.18331C70.9562 7.18307 70.9043 7.17172 70.8564 7.15001C70.8085 7.12829 70.7657 7.0967 70.7307 7.05726C70.6881 7.00952 70.6554 6.95373 70.6344 6.89314C70.6134 6.83255 70.6045 6.76836 70.6083 6.70429C70.6155 6.47202 70.651 6.24152 70.714 6.01798L70.992 4.84424C70.2506 5.47546 69.6761 5.79108 69.2684 5.79108C68.9514 5.79108 68.793 5.64261 68.793 5.34567C68.8519 4.91588 68.9448 4.49153 69.071 4.07669C69.1292 3.88088 69.1701 3.68027 69.1933 3.47722C69.1933 3.38197 69.1544 3.33435 69.0793 3.33435C68.9375 3.33155 68.679 3.51643 68.3037 3.8834Z" fill="black"/>
<path d="M76.3463 2.62282L76.6827 2.54999L76.3019 3.83018C76.148 4.34561 76.0044 4.93855 75.8709 5.60899C75.8157 5.84103 75.7785 6.07705 75.7597 6.31491C75.7597 6.42136 75.8014 6.47178 75.8848 6.47178C75.9784 6.45835 76.0672 6.42178 76.1434 6.36534C76.3622 6.23305 76.5647 6.07507 76.7467 5.89472L76.9107 6.09361C76.6747 6.32137 76.4269 6.53643 76.1684 6.73791C75.9776 6.87505 75.7702 6.98708 75.5512 7.07126C75.4313 7.11696 75.3042 7.14068 75.1759 7.1413C75.1051 7.14786 75.0345 7.1268 74.9786 7.08247C74.9554 7.05907 74.9375 7.03098 74.926 7.00007C74.9145 6.96916 74.9097 6.93613 74.9118 6.90318C74.9156 6.83149 74.9296 6.76072 74.9535 6.69309L75.1565 5.99837C74.8593 6.35319 74.5084 6.65855 74.1167 6.90318C73.9161 7.04435 73.6801 7.12588 73.4356 7.13849C73.3493 7.14308 73.2631 7.12634 73.1846 7.08972C73.1061 7.05311 73.0377 6.99773 72.9853 6.9284C72.8348 6.71356 72.7595 6.45437 72.7712 6.19166C72.7821 5.77533 72.8767 5.36557 73.0492 4.98711C73.2399 4.54559 73.4999 4.13791 73.8193 3.77976C74.1006 3.44807 74.4458 3.1774 74.834 2.98419C75.1665 2.84109 75.5263 2.77412 75.8876 2.7881C75.9982 2.78877 76.1087 2.79626 76.2184 2.81051L76.3463 2.62282ZM75.718 3.40438C75.5665 3.36975 75.4119 3.35098 75.2566 3.34836C74.9713 3.34247 74.692 3.43103 74.4615 3.60047C74.179 3.845 73.962 4.15708 73.8304 4.50809C73.6469 4.9204 73.5521 5.36721 73.5524 5.81909C73.5383 5.99443 73.5791 6.16981 73.6692 6.32052C73.7033 6.36924 73.7488 6.40876 73.8016 6.43563C73.8544 6.46249 73.913 6.47587 73.9722 6.47459C74.2614 6.44858 74.5299 6.31231 74.7228 6.09361C75.0168 5.79108 75.221 5.41167 75.3122 4.99831L75.718 3.40438Z" fill="black"/>
<path d="M80.027 5.89753L80.1354 6.19166C79.3292 6.83035 78.6509 7.1497 78.0949 7.1497C77.9697 7.15908 77.8443 7.13439 77.7318 7.07821C77.6193 7.02204 77.5239 6.93643 77.4555 6.83035C77.3136 6.5883 77.2441 6.31009 77.2553 6.02919C77.2657 5.44949 77.4114 4.88041 77.6807 4.36802C77.9192 3.85652 78.2734 3.40847 78.7148 3.05982C79.0257 2.82741 79.4037 2.70438 79.7907 2.70966C79.9862 2.69827 80.1805 2.74817 80.3467 2.85253C80.4047 2.88998 80.4525 2.9413 80.486 3.00191C80.5194 3.06252 80.5375 3.13053 80.5385 3.19989C80.5401 3.24744 80.532 3.29482 80.5148 3.33913C80.4976 3.38344 80.4716 3.42375 80.4385 3.45761C80.3614 3.52445 80.2621 3.55948 80.1605 3.55565C79.9964 3.54136 79.8386 3.48547 79.7017 3.39318C79.5589 3.29467 79.3933 3.23487 79.2208 3.2195C79.0332 3.2288 78.8562 3.30996 78.726 3.4464C78.5053 3.69956 78.3455 4.00055 78.2589 4.32601C78.1115 4.74721 78.0354 5.19038 78.0337 5.637C78.0179 5.90095 78.084 6.16332 78.2228 6.38775C78.2639 6.4522 78.3208 6.50488 78.388 6.54071C78.4552 6.57653 78.5304 6.59428 78.6064 6.59224C79.0151 6.59224 79.4849 6.35133 80.027 5.89753Z" fill="black"/>
<path d="M81.8173 5.89754C81.8803 5.89639 81.9428 5.90908 82.0004 5.93472C82.058 5.96035 82.1094 5.99833 82.1509 6.046C82.2409 6.15185 82.2885 6.28768 82.2844 6.42698C82.2946 6.61367 82.2395 6.79807 82.1287 6.94802C82.0812 7.00821 82.0207 7.05666 81.9518 7.08968C81.8829 7.12269 81.8074 7.13939 81.7312 7.1385C81.6694 7.13959 81.6081 7.1277 81.5511 7.10358C81.4941 7.07947 81.4428 7.04366 81.4003 6.99844C81.3104 6.90039 81.2624 6.77054 81.2669 6.63708C81.263 6.43427 81.3288 6.23634 81.4532 6.07682C81.4949 6.01949 81.5499 5.97322 81.6133 5.94199C81.6768 5.91077 81.7468 5.89551 81.8173 5.89754V5.89754ZM82.0953 5.31487H81.8007C82.0212 3.69012 82.1787 2.31563 82.2733 1.19138C82.2706 1.14078 82.2864 1.09096 82.3177 1.05131C82.4 0.989001 82.4949 0.945938 82.5957 0.925258C82.7541 0.876867 82.9172 0.845872 83.0822 0.832815C83.0967 0.830381 83.1115 0.831451 83.1254 0.835939C83.1393 0.840428 83.1519 0.848205 83.1623 0.858619C83.1726 0.869034 83.1803 0.881783 83.1848 0.895811C83.1892 0.909839 83.1903 0.924735 83.1879 0.939261C83.1855 1.0045 83.1724 1.06888 83.149 1.12975C83.1045 1.25861 82.9571 1.81326 82.7014 2.79371L82.0953 5.31487Z" fill="black"/>
</svg>
